<svg width="348" height="452" version="1.1" xmlns="http://www.w3.org/2000/svg" desc="Created with imagetracer.js version 1.2.6" ><path fill="rgb(0,0,0)" stroke="rgb(0,0,0)" stroke-width="1" opacity="0" d="M 0 0 L 348 0 L 348 452 L 0 452 L 0 0 Z M 187 72 L 180 77 L 174 93 L 175 95 Q 177 101 174 103 L 176 105 L 178 112 Q 181 116 187 117 Q 196 118 200 112 Q 203 109 203 104 Q 206 102 204 101 Q 203 96 206 97 Q 207 91 204 88 L 205 84 L 203 83 L 200 75 Q 197 70 187 72 Z M 231 72 L 231 74 L 229 73 L 228 75 L 227 74 Q 218 80 214 90 L 215 91 Q 212 90 213 94 Q 216 95 212 97 Q 210 111 216 118 Q 215 120 218 119 L 219 122 L 222 124 Q 221 126 225 125 L 227 125 Q 232 124 234 126 Q 236 127 235 125 L 237 125 L 248 116 L 247 115 L 249 114 L 253 103 L 252 99 L 253 94 L 253 89 L 250 81 L 248 79 L 244 75 L 243 75 L 239 72 L 237 73 L 231 72 Z M 156 88 L 153 90 Q 147 94 145 101 L 146 104 L 145 108 Q 144 112 147 113 L 146 115 L 148 115 L 149 119 L 155 124 Q 156 121 158 125 Q 162 126 161 123 L 164 124 L 165 122 L 168 120 L 171 115 Q 170 110 172 109 L 171 99 L 169 95 L 164 89 L 160 89 L 156 88 Z M 129 107 L 125 109 L 122 112 Q 119 114 120 120 L 118 122 L 123 135 L 128 138 L 131 137 L 133 137 L 136 138 L 137 136 L 139 136 Q 143 132 144 126 L 144 120 L 142 114 L 134 107 L 129 107 Z M 107 128 L 107 130 L 105 130 Q 106 132 103 131 L 100 137 L 101 139 L 100 144 L 102 152 L 105 153 Q 104 155 107 154 L 107 156 L 112 156 L 115 155 L 118 153 L 120 150 L 120 148 L 122 145 Q 123 138 120 136 Q 121 132 119 133 L 116 130 L 115 130 Q 113 127 107 128 Z M 192 129 L 190 131 L 186 130 L 182 132 L 180 131 L 177 133 L 175 132 L 174 134 L 171 133 L 170 135 Q 159 137 152 142 Q 149 141 150 144 L 149 143 L 148 145 L 147 144 L 145 145 L 143 148 L 142 147 L 126 159 L 119 168 L 115 170 L 107 189 L 106 205 L 105 206 L 108 233 L 118 265 Q 117 268 120 267 L 127 288 L 130 301 L 133 306 L 132 308 L 134 310 L 138 333 L 142 346 Q 145 347 143 349 L 145 353 Q 144 355 147 354 L 146 356 L 148 356 L 149 359 L 152 361 L 151 363 Q 158 371 169 376 L 171 376 Q 173 375 172 378 L 174 377 Q 176 376 175 379 L 178 378 L 181 380 L 183 379 L 188 380 L 196 380 L 197 379 L 201 380 Q 205 381 206 378 L 208 379 L 211 377 L 213 378 L 216 376 L 220 376 L 220 374 L 223 375 L 223 373 L 232 370 Q 234 371 233 369 L 235 369 L 239 367 Q 241 363 243 365 Q 242 361 246 363 L 246 362 L 248 362 L 249 359 L 257 355 L 258 353 L 265 349 L 265 348 L 279 334 L 278 331 L 277 333 Q 273 336 265 336 L 265 338 L 262 337 Q 260 340 259 338 L 254 340 L 252 339 Q 247 338 247 341 Q 242 342 241 340 L 236 341 Q 228 343 227 339 L 223 340 L 220 338 L 217 339 L 216 337 L 214 338 L 203 332 Q 200 333 201 331 Q 198 332 196 327 L 195 328 L 186 319 Q 187 315 184 316 Q 185 311 181 310 Q 182 307 180 308 L 179 306 Q 180 301 177 302 L 178 300 L 177 298 L 177 296 L 175 295 L 176 291 L 174 287 L 174 273 Q 177 271 175 270 Q 174 265 177 266 L 176 263 Q 179 261 177 260 L 179 258 L 180 253 L 185 243 L 188 240 Q 187 236 190 237 Q 194 237 193 232 L 197 229 L 201 224 L 206 219 L 207 220 L 207 219 L 210 217 L 215 211 L 227 200 L 231 195 Q 230 192 234 193 L 233 191 L 235 190 L 240 179 L 241 163 Q 237 161 240 160 L 236 147 L 234 147 L 235 144 L 231 142 L 229 140 L 223 135 Q 220 136 221 134 L 219 134 Q 220 131 218 132 L 214 132 L 211 130 L 209 131 L 204 129 L 192 129 Z M 250 143 L 248 145 L 250 150 L 251 164 L 252 165 L 252 174 L 249 188 L 247 193 L 236 208 L 211 231 L 202 241 Q 199 240 200 243 L 200 245 L 197 245 L 190 260 Q 186 261 189 263 L 186 269 L 187 271 L 185 274 L 185 288 L 187 290 L 186 292 L 186 294 Q 189 293 188 296 L 188 298 Q 187 301 190 300 L 192 307 L 195 308 L 197 311 L 201 310 L 202 308 Q 203 305 205 307 L 207 303 L 212 301 L 217 295 L 223 291 L 228 284 Q 227 281 230 282 L 232 279 Q 231 276 235 277 L 235 276 L 235 274 L 237 273 L 244 263 L 244 261 L 247 259 L 246 258 L 248 257 L 257 239 L 259 232 L 261 231 L 259 235 L 260 237 L 257 243 L 257 247 L 252 260 L 252 263 L 247 274 Q 243 275 246 277 L 245 277 L 245 279 L 243 279 L 231 298 L 229 299 L 229 301 L 214 314 Q 211 313 212 317 L 211 316 Q 208 317 208 321 L 215 324 L 217 324 L 222 327 L 232 329 L 252 329 L 268 325 Q 269 321 271 324 L 271 323 L 273 323 L 273 322 L 275 322 L 275 321 L 277 321 L 277 320 L 279 320 L 281 316 L 290 311 L 298 296 L 301 285 L 304 280 L 303 278 L 305 275 L 304 272 L 306 269 L 305 265 L 307 258 L 307 242 L 305 239 L 306 236 L 305 230 L 305 228 L 303 223 L 304 221 Q 300 219 303 218 L 292 189 L 280 171 L 259 150 L 257 148 L 250 143 Z M 101 167 L 93 172 Q 83 180 77 193 Q 78 195 76 194 L 76 196 L 74 196 L 66 217 L 64 230 L 62 232 L 63 236 L 63 238 L 62 239 L 62 269 L 63 272 L 62 275 L 64 278 L 65 286 L 71 302 L 71 305 L 75 312 Q 74 314 77 313 L 76 315 L 78 315 L 85 328 L 88 329 Q 90 330 88 332 L 94 337 L 96 340 L 101 343 L 105 349 L 110 352 Q 112 351 111 354 L 121 359 L 122 362 L 124 361 L 127 364 L 141 370 L 136 357 Q 137 353 135 354 L 135 353 L 132 349 L 129 339 L 125 321 L 124 310 Q 120 308 123 307 L 122 304 L 122 302 Q 123 299 120 300 L 121 298 L 108 266 L 108 263 Q 105 264 106 262 L 106 260 Q 107 256 104 257 L 98 239 L 95 224 L 95 222 Q 96 215 93 213 L 93 203 Q 97 199 95 191 L 101 170 L 101 167 Z " /><path fill="rgb(0,0,0)" stroke="rgb(0,0,0)" stroke-width="1" opacity="0" d="M 261.5 227 L 260.5 229 L 261.5 227 Z " /><path fill="rgb(0,139,74)" stroke="rgb(0,139,74)" stroke-width="1" opacity="0.9490196078431372" d="M 190.5 74 L 195 74.5 L 190.5 75 L 190.5 74 Z " /><path fill="rgb(0,139,74)" stroke="rgb(0,139,74)" stroke-width="1" opacity="0.9490196078431372" d="M 186.5 75 L 184.5 78 L 186.5 75 Z " /><path fill="rgb(0,139,74)" stroke="rgb(0,139,74)" stroke-width="1" opacity="0.9490196078431372" d="M 218.5 83 L 217.5 85 L 218.5 83 Z " /><path fill="rgb(0,139,74)" stroke="rgb(0,139,74)" stroke-width="1" opacity="0.9490196078431372" d="M 250.5 85 L 251.5 87 L 250.5 85 Z " /><path fill="rgb(0,139,74)" stroke="rgb(0,139,74)" stroke-width="1" opacity="0.9490196078431372" d="M 216.5 86 L 215.5 88 L 216.5 86 Z " /><path fill="rgb(0,139,74)" stroke="rgb(0,139,74)" stroke-width="1" opacity="0.9490196078431372" d="M 154.5 89 L 153.5 91 L 152 90.5 L 154.5 89 Z " /><path fill="rgb(0,139,74)" stroke="rgb(0,139,74)" stroke-width="1" opacity="0.9490196078431372" d="M 251.5 90 L 252.5 92 L 251.5 90 Z " /><path fill="rgb(0,139,74)" stroke="rgb(0,139,74)" stroke-width="1" opacity="0.9490196078431372" d="M 175.5 94 L 176 101.5 L 175 101.5 L 175.5 94 Z " /><path fill="rgb(0,139,74)" stroke="rgb(0,139,74)" stroke-width="1" opacity="0.9490196078431372" d="M 213.5 98 L 213 99.5 L 214 105.5 L 213 105.5 L 212 99.5 L 213.5 98 Z " /><path fill="rgb(0,139,74)" stroke="rgb(0,139,74)" stroke-width="1" opacity="0.9490196078431372" d="M 252.5 100 L 251.5 102 L 252.5 100 Z " /><path fill="rgb(0,139,74)" stroke="rgb(0,139,74)" stroke-width="1" opacity="0.9490196078431372" d="M 146.5 101 L 147 103 L 145 102.5 L 146.5 101 Z " /><path fill="rgb(0,139,74)" stroke="rgb(0,139,74)" stroke-width="1" opacity="0.9490196078431372" d="M 168.5 104 L 169 106.5 L 168 106.5 L 168.5 104 Z " /><path fill="rgb(0,139,74)" stroke="rgb(0,139,74)" stroke-width="1" opacity="0.9490196078431372" d="M 146.5 106 L 147 109 Q 144.3 110.1 145 107.5 L 146.5 106 Z " /><path fill="rgb(0,139,74)" stroke="rgb(0,139,74)" stroke-width="1" opacity="0.9490196078431372" d="M 125.5 109 L 122 113.5 L 121.5 115 L 121 113.5 L 125.5 109 Z " /><path fill="rgb(0,139,74)" stroke="rgb(0,139,74)" stroke-width="1" opacity="0.9490196078431372" d="M 126.5 111 L 124.5 114 L 126.5 111 Z " /><path fill="rgb(0,139,74)" stroke="rgb(0,139,74)" stroke-width="1" opacity="0.9490196078431372" d="M 139.5 112 L 140.5 114 L 139.5 112 Z " /><path fill="rgb(0,139,74)" stroke="rgb(0,139,74)" stroke-width="1" opacity="0.9490196078431372" d="M 141.5 115 L 143 120.5 L 142 120.5 L 141.5 115 Z " /><path fill="rgb(0,139,74)" stroke="rgb(0,139,74)" stroke-width="1" opacity="0.9490196078431372" d="M 139.5 116 L 141 118.5 L 139 117.5 L 139.5 116 Z " /><path fill="rgb(0,139,74)" stroke="rgb(0,139,74)" stroke-width="1" opacity="0.9490196078431372" d="M 168.5 117 L 168 118.5 L 167.5 120 L 167 118.5 L 168.5 117 Z " /><path fill="rgb(0,139,74)" stroke="rgb(0,139,74)" stroke-width="1" opacity="0.9490196078431372" d="M 140.5 120 L 141 125.5 L 140 125.5 L 140.5 120 Z " /><path fill="rgb(0,139,74)" stroke="rgb(0,139,74)" stroke-width="1" opacity="0.9490196078431372" d="M 142.5 124 L 143 127.5 L 142 127.5 L 142.5 124 Z " /><path fill="rgb(0,139,74)" stroke="rgb(0,139,74)" stroke-width="1" opacity="0.9490196078431372" d="M 109.5 128 L 116 130.5 L 114 131.5 L 114.5 133 L 111 131.5 L 114 130.5 L 110.5 129 L 107.5 130 L 107.5 129 L 109.5 128 Z " /><path fill="rgb(0,139,74)" stroke="rgb(0,139,74)" stroke-width="1" opacity="0.9490196078431372" d="M 141.5 129 L 142 130.5 L 140.5 133 L 140 131.5 L 141.5 129 Z " /><path fill="rgb(0,139,74)" stroke="rgb(0,139,74)" stroke-width="1" opacity="0.9490196078431372" d="M 196.5 129 L 203 130.5 L 193.5 131 L 193.5 130 L 196.5 129 Z " /><path fill="rgb(0,139,74)" stroke="rgb(0,139,74)" stroke-width="1" opacity="0.9490196078431372" d="M 124.5 130 L 126 132.5 L 124 131.5 L 124.5 130 Z " /><path fill="rgb(0,139,74)" stroke="rgb(0,139,74)" stroke-width="1" opacity="0.9490196078431372" d="M 185.5 130 L 186 132 L 184 131.5 L 185.5 130 Z " /><path fill="rgb(0,139,74)" stroke="rgb(0,139,74)" stroke-width="1" opacity="0.9490196078431372" d="M 103.5 131 L 104.5 133 L 109.5 131 L 109.5 132 L 104.5 134 L 103.5 131 Z " /><path fill="rgb(0,139,74)" stroke="rgb(0,139,74)" stroke-width="1" opacity="0.9490196078431372" d="M 191.5 132 L 195 132.5 L 191.5 133 L 191.5 132 Z " /><path fill="rgb(0,139,74)" stroke="rgb(0,139,74)" stroke-width="1" opacity="0.9490196078431372" d="M 198.5 132 L 205 132.5 L 198.5 133 L 198.5 132 Z " /><path fill="rgb(0,139,74)" stroke="rgb(0,139,74)" stroke-width="1" opacity="0.9490196078431372" d="M 101.5 136 L 102 138 L 100 137.5 L 101.5 136 Z " /><path fill="rgb(0,139,74)" stroke="rgb(0,139,74)" stroke-width="1" opacity="0.9490196078431372" d="M 117.5 136 Q 120.1 138.4 119 144.5 L 117.5 148 L 117 145.5 L 118 141.5 Q 115.6 140.1 117.5 136 Z " /><path fill="rgb(0,139,74)" stroke="rgb(0,139,74)" stroke-width="1" opacity="0.9490196078431372" d="M 162.5 137 L 161.5 139 L 162.5 137 Z " /><path fill="rgb(0,139,74)" stroke="rgb(0,139,74)" stroke-width="1" opacity="0.9490196078431372" d="M 103.5 142 L 104 145.5 L 103 145.5 L 103.5 142 Z " /><path fill="rgb(0,139,74)" stroke="rgb(0,139,74)" stroke-width="1" opacity="0.9490196078431372" d="M 100.5 143 Q 102.8 142.3 102 144.5 L 100.5 143 Z " /><path fill="rgb(0,139,74)" stroke="rgb(0,139,74)" stroke-width="1" opacity="0.9490196078431372" d="M 146.5 147 L 145.5 149 L 146.5 147 Z " /><path fill="rgb(0,139,74)" stroke="rgb(0,139,74)" stroke-width="1" opacity="0.9490196078431372" d="M 105.5 150 L 112 153.5 L 109.5 154 L 105.5 150 Z " /><path fill="rgb(0,139,74)" stroke="rgb(0,139,74)" stroke-width="1" opacity="0.9490196078431372" d="M 114.5 151 L 113.5 153 L 114.5 151 Z " /><path fill="rgb(0,139,74)" stroke="rgb(0,139,74)" stroke-width="1" opacity="0.9490196078431372" d="M 236.5 151 Q 239.1 150.2 238 153.5 L 238.5 155 L 236.5 151 Z " /><path fill="rgb(0,139,74)" stroke="rgb(0,139,74)" stroke-width="1" opacity="0.9490196078431372" d="M 113.5 154 L 116 154.5 L 113.5 155 L 113.5 154 Z " /><path fill="rgb(0,139,74)" stroke="rgb(0,139,74)" stroke-width="1" opacity="0.9490196078431372" d="M 133.5 156 L 132.5 158 L 133.5 156 Z " /><path fill="rgb(0,139,74)" stroke="rgb(0,139,74)" stroke-width="1" opacity="0.9490196078431372" d="M 238.5 157 L 239.5 159 L 238.5 157 Z " /><path fill="rgb(0,139,74)" stroke="rgb(0,139,74)" stroke-width="1" opacity="0.9490196078431372" d="M 127.5 159 L 126.5 161 L 127.5 159 Z " /><path fill="rgb(0,139,74)" stroke="rgb(0,139,74)" stroke-width="1" opacity="0.9490196078431372" d="M 100.5 167 L 101 168.5 L 98 170.5 L 99 172.5 L 98 172.5 L 97.5 171 L 97 174.5 L 97.5 176 L 96 175.5 Q 94.9 178.8 97.5 178 L 96.5 180 L 95 179.5 L 96 183.5 L 94 183.5 Q 92.5 187.9 95.5 187 L 94.5 189 L 93.5 187 L 93 192.5 L 95 192.5 L 93.5 196 L 92.5 194 L 92 220.5 L 93 220.5 L 93.5 219 L 95 222 Q 91 220.6 93 227.5 L 94.5 227 Q 96.8 226.3 96 228.5 L 94 228.5 L 94.5 233 L 95.5 231 L 96.5 233 Q 93.5 232.1 95 236.5 L 96.5 236 L 98 236.5 L 96 237 L 96.5 241 L 97.5 239 L 102 250.5 L 100 251 L 101.5 255 L 102.5 253 L 103 254.5 L 102 257.5 L 109 275.5 L 108 275.5 L 104.5 267 L 102 268.5 Q 101.3 266.3 103.5 267 L 103.5 266 L 100 265 L 99.5 267 L 96.5 266 L 95 266.5 L 95.5 268 L 92.5 266 L 89.5 268 L 88 267.5 L 89 270.5 L 87 269.5 L 86.5 268 L 84 269.5 L 85 267 L 82 268.5 Q 83.2 273.1 78 271 L 78 267 L 76.5 267 L 76.5 269 L 73 270 Q 74.1 272.7 71.5 272 L 70.5 269 L 70 271 L 66 272 L 64 267.5 Q 65.4 258.6 63 253.5 L 64 251.5 Q 61.3 249.2 62 243.5 L 63 243.5 L 63.5 248 L 64 235.5 L 63 233 Q 66 234.3 65 230.5 L 64 227.5 L 65 227.5 L 65.5 229 L 66 224.5 L 66 222.5 Q 66 215 69.5 211 L 71 211.5 L 70.5 209 L 69 209.5 L 72 208.5 L 73 204.5 L 72 201 L 74.5 202 L 76 198.5 L 75 196.5 L 78 194.5 L 78 192.5 L 80.5 189 L 82 188.5 Q 79.8 187.3 82.5 186 L 84 185.5 Q 81.5 184 85 182.5 L 86.5 179 L 94 174.5 L 94 172.5 L 96.5 169 L 98.5 169 Q 101 169.7 100.5 167 Z M 70 212 L 69 215 L 70 215 L 70 212 Z M 69 215 L 68 218 L 69 218 L 69 215 Z M 98 241 L 97 244 L 98 244 L 98 241 Z M 99 244 L 98 248 L 99 248 L 99 244 Z M 100 248 L 99 251 L 100 251 L 100 248 Z M 69 268 L 66 270 Q 68 273 69 270 L 69 268 Z " /><path fill="rgb(0,139,74)" stroke="rgb(0,139,74)" stroke-width="1" opacity="0.9490196078431372" d="M 119.5 167 L 118.5 169 L 119.5 167 Z " /><path fill="rgb(0,139,74)" stroke="rgb(0,139,74)" stroke-width="1" opacity="0.9490196078431372" d="M 118.5 171 L 117.5 173 L 118.5 171 Z " /><path fill="rgb(0,139,74)" stroke="rgb(0,139,74)" stroke-width="1" opacity="0.9490196078431372" d="M 116.5 174 L 116 175.5 L 115.5 177 L 115 175.5 L 116.5 174 Z " /><path fill="rgb(0,139,74)" stroke="rgb(0,139,74)" stroke-width="1" opacity="0.9490196078431372" d="M 239.5 176 L 239 177.5 L 238.5 179 L 238 177.5 L 239.5 176 Z " /><path fill="rgb(0,139,74)" stroke="rgb(0,139,74)" stroke-width="1" opacity="0.9490196078431372" d="M 213.5 212 L 212.5 214 L 210.5 215 L 211.5 213 L 213.5 212 Z " /><path fill="rgb(0,139,74)" stroke="rgb(0,139,74)" stroke-width="1" opacity="0.9490196078431372" d="M 230.5 213 L 229.5 215 L 230.5 213 Z " /><path fill="rgb(0,139,74)" stroke="rgb(0,139,74)" stroke-width="1" opacity="0.9490196078431372" d="M 109.5 235 L 112 240.5 L 111 240.5 L 109.5 235 Z " /><path fill="rgb(0,139,74)" stroke="rgb(0,139,74)" stroke-width="1" opacity="0.9490196078431372" d="M 207.5 235 L 209 235.5 L 206.5 237 L 207.5 235 Z " /><path fill="rgb(0,139,74)" stroke="rgb(0,139,74)" stroke-width="1" opacity="0.9490196078431372" d="M 111.5 242 L 112.5 244 L 111.5 242 Z " /><path fill="rgb(0,139,74)" stroke="rgb(0,139,74)" stroke-width="1" opacity="0.9490196078431372" d="M 197.5 249 L 196.5 251 L 197.5 249 Z " /><path fill="rgb(0,139,74)" stroke="rgb(0,139,74)" stroke-width="1" opacity="0.9490196078431372" d="M 178.5 255 L 179 257 L 177 256.5 L 178.5 255 Z " /><path fill="rgb(0,139,74)" stroke="rgb(0,139,74)" stroke-width="1" opacity="0.9490196078431372" d="M 62.5 259 L 63 264.5 L 62 264.5 L 62.5 259 Z " /><path fill="rgb(0,139,74)" stroke="rgb(0,139,74)" stroke-width="1" opacity="0.9490196078431372" d="M 107.5 266 L 108.5 268 L 107.5 266 Z " /><path fill="rgb(0,139,74)" stroke="rgb(0,139,74)" stroke-width="1" opacity="0.9490196078431372" d="M 188.5 266 L 189 268.5 L 188 268.5 L 188.5 266 Z " /><path fill="rgb(0,139,74)" stroke="rgb(0,139,74)" stroke-width="1" opacity="0.9490196078431372" d="M 99.5 268 Q 101.8 267.3 101 269.5 L 99.5 268 Z " /><path fill="rgb(0,139,74)" stroke="rgb(0,139,74)" stroke-width="1" opacity="0.9490196078431372" d="M 303.5 268 L 304 270.5 L 303 270.5 L 303.5 268 Z " /><path fill="rgb(0,139,74)" stroke="rgb(0,139,74)" stroke-width="1" opacity="0.9490196078431372" d="M 236.5 270 L 234.5 273 L 236.5 270 Z " /><path fill="rgb(0,139,74)" stroke="rgb(0,139,74)" stroke-width="1" opacity="0.9490196078431372" d="M 187.5 271 L 188 273.5 L 187 273.5 L 187.5 271 Z " /><path fill="rgb(0,139,74)" stroke="rgb(0,139,74)" stroke-width="1" opacity="0.9490196078431372" d="M 66.5 273 L 67 275.5 L 66 275.5 L 66.5 273 Z " /><path fill="rgb(0,139,74)" stroke="rgb(0,139,74)" stroke-width="1" opacity="0.9490196078431372" d="M 110.5 273 L 112 275.5 L 110 274.5 L 110.5 273 Z " /><path fill="rgb(0,139,74)" stroke="rgb(0,139,74)" stroke-width="1" opacity="0.9490196078431372" d="M 233.5 274 L 232.5 276 L 233.5 274 Z " /><path fill="rgb(0,139,74)" stroke="rgb(0,139,74)" stroke-width="1" opacity="0.9490196078431372" d="M 247.5 274 L 248 275.5 L 244.5 281 L 245 279.5 L 247.5 274 Z " /><path fill="rgb(0,139,74)" stroke="rgb(0,139,74)" stroke-width="1" opacity="0.9490196078431372" d="M 109.5 277 L 111 279.5 L 109 278.5 L 109.5 277 Z " /><path fill="rgb(0,139,74)" stroke="rgb(0,139,74)" stroke-width="1" opacity="0.9490196078431372" d="M 230.5 278 L 229.5 280 L 230.5 278 Z " /><path fill="rgb(0,139,74)" stroke="rgb(0,139,74)" stroke-width="1" opacity="0.9490196078431372" d="M 112.5 279 L 114 281.5 L 113 281.5 L 112.5 279 Z " /><path fill="rgb(0,139,74)" stroke="rgb(0,139,74)" stroke-width="1" opacity="0.9490196078431372" d="M 125.5 282 L 126.5 284 L 125.5 282 Z " /><path fill="rgb(0,139,74)" stroke="rgb(0,139,74)" stroke-width="1" opacity="0.9490196078431372" d="M 225.5 284 L 220 290.5 L 218 293.5 L 217 293.5 L 225.5 284 Z " /><path fill="rgb(0,139,74)" stroke="rgb(0,139,74)" stroke-width="1" opacity="0.9490196078431372" d="M 239.5 287 L 240 289.5 L 239 289.5 L 239.5 287 Z " /><path fill="rgb(0,139,74)" stroke="rgb(0,139,74)" stroke-width="1" opacity="0.9490196078431372" d="M 67.5 289 L 70 295.5 L 68 294.5 L 67.5 289 Z " /><path fill="rgb(0,139,74)" stroke="rgb(0,139,74)" stroke-width="1" opacity="0.9490196078431372" d="M 236.5 291 L 237 292.5 L 235 293.5 L 236.5 291 Z " /><path fill="rgb(0,139,74)" stroke="rgb(0,139,74)" stroke-width="1" opacity="0.9490196078431372" d="M 188.5 294 L 193 304.5 L 196 307.5 L 192 304.5 L 188.5 294 Z " /><path fill="rgb(0,139,74)" stroke="rgb(0,139,74)" stroke-width="1" opacity="0.9490196078431372" d="M 215.5 294 L 216.5 296 L 215 295.5 Q 215.8 297.8 213.5 297 L 208 301.5 L 215.5 294 Z " /><path fill="rgb(0,139,74)" stroke="rgb(0,139,74)" stroke-width="1" opacity="0.9490196078431372" d="M 234.5 295 L 232.5 298 L 234.5 295 Z " /><path fill="rgb(0,139,74)" stroke="rgb(0,139,74)" stroke-width="1" opacity="0.9490196078431372" d="M 70.5 298 L 72 300.5 L 70 301 L 70.5 298 Z " /><path fill="rgb(0,139,74)" stroke="rgb(0,139,74)" stroke-width="1" opacity="0.9490196078431372" d="M 229.5 300 L 230 302 L 228 301.5 L 229.5 300 Z " /><path fill="rgb(0,139,74)" stroke="rgb(0,139,74)" stroke-width="1" opacity="0.9490196078431372" d="M 292.5 301 L 293 302.5 L 291.5 305 L 291 303.5 L 292.5 301 Z " /><path fill="rgb(0,139,74)" stroke="rgb(0,139,74)" stroke-width="1" opacity="0.9490196078431372" d="M 206.5 302 L 205.5 304 L 206.5 302 Z " /><path fill="rgb(0,139,74)" stroke="rgb(0,139,74)" stroke-width="1" opacity="0.9490196078431372" d="M 226.5 303 L 228 303.5 L 226 304 Q 227.1 306.7 224.5 306 L 218.5 311 L 221.5 307 L 226.5 303 Z " /><path fill="rgb(0,139,74)" stroke="rgb(0,139,74)" stroke-width="1" opacity="0.9490196078431372" d="M 202 305 L 204 305.5 L 201 307.5 L 202 305 Z " /><path fill="rgb(0,139,74)" stroke="rgb(0,139,74)" stroke-width="1" opacity="0.9490196078431372" d="M 74.5 307 L 76 309.5 L 74 308.5 L 74.5 307 Z " /><path fill="rgb(0,139,74)" stroke="rgb(0,139,74)" stroke-width="1" opacity="0.9490196078431372" d="M 198 308 Q 201 307 200 310 Q 197 311 198 308 Z " /><path fill="rgb(0,139,74)" stroke="rgb(0,139,74)" stroke-width="1" opacity="0.9490196078431372" d="M 287.5 309 L 286.5 311 L 287.5 309 Z " /><path fill="rgb(0,139,74)" stroke="rgb(0,139,74)" stroke-width="1" opacity="0.9490196078431372" d="M 122.5 310 L 123.5 312 L 122.5 310 Z " /><path fill="rgb(0,139,74)" stroke="rgb(0,139,74)" stroke-width="1" opacity="0.9490196078431372" d="M 283.5 313 L 282.5 315 L 283.5 313 Z " /><path fill="rgb(0,139,74)" stroke="rgb(0,139,74)" stroke-width="1" opacity="0.9490196078431372" d="M 123.5 316 L 124.5 318 Q 121.7 318.7 123.5 316 Z " /><path fill="rgb(0,139,74)" stroke="rgb(0,139,74)" stroke-width="1" opacity="0.9490196078431372" d="M 212 316 L 214 316.5 L 212 317.5 L 212 316 Z " /><path fill="rgb(0,139,74)" stroke="rgb(0,139,74)" stroke-width="1" opacity="0.9490196078431372" d="M 279.5 316 L 277.5 319 L 270.5 322 L 270.5 321 L 279.5 316 Z " /><path fill="rgb(0,139,74)" stroke="rgb(0,139,74)" stroke-width="1" opacity="0.9490196078431372" d="M 124.5 322 L 125.5 324 L 124.5 322 Z " /><path fill="rgb(0,139,74)" stroke="rgb(0,139,74)" stroke-width="1" opacity="0.9490196078431372" d="M 218.5 323 L 220 325.5 L 218 324.5 L 218.5 323 Z " /><path fill="rgb(0,139,74)" stroke="rgb(0,139,74)" stroke-width="1" opacity="0.9490196078431372" d="M 191.5 324 L 192.5 326 L 191.5 324 Z " /><path fill="rgb(0,139,74)" stroke="rgb(0,139,74)" stroke-width="1" opacity="0.9490196078431372" d="M 224.5 326 Q 228.9 324.5 228 327.5 L 226.5 327 Q 223.5 327.5 224.5 326 Z " /><path fill="rgb(0,139,74)" stroke="rgb(0,139,74)" stroke-width="1" opacity="0.9490196078431372" d="M 125.5 327 L 126.5 329 L 125.5 327 Z " /><path fill="rgb(0,139,74)" stroke="rgb(0,139,74)" stroke-width="1" opacity="0.9490196078431372" d="M 231.5 327 L 246.5 328 L 250.5 327 L 250.5 328 L 235.5 329 L 231.5 328 L 231.5 327 Z " /><path fill="rgb(0,139,74)" stroke="rgb(0,139,74)" stroke-width="1" opacity="0.9490196078431372" d="M 126.5 330 L 128 332.5 L 126 331.5 L 126.5 330 Z " /><path fill="rgb(0,139,74)" stroke="rgb(0,139,74)" stroke-width="1" opacity="0.9490196078431372" d="M 128.5 336 L 129 338.5 L 128 338.5 L 128.5 336 Z " /><path fill="rgb(0,139,74)" stroke="rgb(0,139,74)" stroke-width="1" opacity="0.9490196078431372" d="M 104.5 346 L 106 348.5 L 105 348.5 L 104.5 346 Z " /><path fill="rgb(0,120,54)" stroke="rgb(0,120,54)" stroke-width="1" opacity="0.9921568627450981" d="M 187.5 72 L 188.5 75 L 190 72 Q 194.1 70.7 193 74 L 190 74.5 L 194.5 75 L 198 74.5 L 197.5 76 Q 200.8 74.9 200 77.5 L 203 81.5 L 202 85 L 204 85.5 L 203 86.5 L 203 97.5 L 204 100 Q 200.7 98.7 202 103.5 L 201 105.5 L 201.5 107 L 199 108.5 L 199.5 110 L 196 112.5 L 196.5 114 L 194.5 115 L 192 114 Q 193.4 118 186.5 116 L 180 114 L 179 111.5 L 179.5 110 L 177 108.5 L 178 106 L 176 105.5 Q 178.8 103.8 177 97.5 L 176 94.5 L 177 91.5 L 176 89.5 L 178 83.5 L 181 80.5 Q 178.5 79 182 77.5 L 183.5 75 L 185.5 74 L 186.5 76 L 187.5 72 Z " /><path fill="rgb(0,120,54)" stroke="rgb(0,120,54)" stroke-width="1" opacity="0.9921568627450981" d="M 233.5 72 L 234 74 Q 237.7 75.5 237 72.5 L 238 72.5 L 237 74.5 L 239.5 75 L 241.5 74 L 242.5 77 L 244.5 76 Q 242.8 78 246.5 80 L 248 79.5 L 247 81.5 L 250 87.5 L 250 93.5 L 252 100.5 L 250 100.5 Q 248.1 105.9 251.5 105 L 251.5 106 L 249.5 105 L 246 113.5 L 246.5 115 L 245.5 114 L 237.5 122 L 227.5 124 L 224.5 123 L 224.5 125 L 223.5 122 L 221.5 121 L 220 121.5 L 221 120.5 L 218 117.5 L 215.5 110 L 213 111 L 213.5 109 L 215 109.5 L 215 94.5 L 214 93.5 L 216 93.5 L 217 88.5 L 216.5 87 L 218 87.5 L 217 85.5 L 219 85.5 L 220 83.5 L 219.5 82 L 221 81.5 Q 218.8 80.3 221.5 79 Q 223 81.5 224.5 78 L 226 77.5 L 224 76.5 L 225.5 76 L 227.5 76 L 233 75 L 233.5 72 Z " /><path fill="rgb(0,120,54)" stroke="rgb(0,120,54)" stroke-width="1" opacity="0.9921568627450981" d="M 156.5 89 Q 160.3 88.3 161 90.5 L 161.5 92 L 162.5 90 L 167 92.5 L 166 94.5 L 170 97.5 Q 167.5 99 171 100.5 L 170 103.5 L 171 105.5 L 170 108.5 L 171 110.5 L 169 114.5 L 169 116.5 L 164.5 122 L 163.5 120 L 162.5 123 L 160.5 122 L 159 122.5 L 158.5 121 L 156 122.5 L 156.5 124 L 155 121.5 L 155.5 120 Q 153.3 119.3 154 121.5 L 152.5 121 Q 150.3 121.8 151 119.5 L 147 112.5 L 146 103.5 L 147 98.5 L 149 96.5 L 149 94.5 L 151.5 91 L 156.5 89 Z M 169 104 L 168 107 L 169 107 L 169 104 Z " /><path fill="rgb(0,120,54)" stroke="rgb(0,120,54)" stroke-width="1" opacity="0.9921568627450981" d="M 251.5 91 L 252.5 93 L 251.5 91 Z " /><path fill="rgb(0,120,54)" stroke="rgb(0,120,54)" stroke-width="1" opacity="0.9921568627450981" d="M 213.5 99 L 214 102.5 L 213 102.5 L 213.5 99 Z " /><path fill="rgb(0,120,54)" stroke="rgb(0,120,54)" stroke-width="1" opacity="0.9921568627450981" d="M 127.5 108 Q 136.5 106.5 139 111.5 Q 142.7 115.8 143 123.5 L 140 133 L 137 134.5 Q 137.8 136.8 135.5 136 Q 134 138.5 128.5 137 L 123 134 Q 118.8 128.9 120 117.5 L 127.5 108 Z M 141 120 L 140 126 L 141 126 L 141 120 Z " /><path fill="rgb(0,120,54)" stroke="rgb(0,120,54)" stroke-width="1" opacity="0.9921568627450981" d="M 110.5 129 L 118 132.5 Q 121.3 136.2 120 144.5 L 119 147.5 L 115.5 154 L 108.5 156 L 106 152 Q 103.3 153.1 104 150.5 Q 100.8 146.2 101 138.5 L 104 131 L 110.5 129 Z M 108 131 L 106 132 L 106 133 L 110 132 L 108 131 Z M 112 131 L 112 132 L 114 132 L 112 131 Z M 118 136 L 118 145 L 119 145 Q 120 138 118 136 Z M 104 142 L 103 146 L 104 146 L 104 142 Z M 118 145 L 117 148 L 118 148 L 118 145 Z M 110 153 L 110 154 L 112 154 L 110 153 Z " /><path fill="rgb(0,120,54)" stroke="rgb(0,120,54)" stroke-width="1" opacity="0.9921568627450981" d="M 186.5 131 L 194.5 133 L 194.5 131 L 200 131.5 L 198 132.5 L 204.5 133 L 208.5 131 L 212.5 133 L 214 132.5 Q 213.3 134.8 215.5 134 L 217 133.5 Q 216.2 136.1 219.5 135 L 222.5 137 L 224 136.5 Q 223.2 139.1 226.5 138 L 231.5 145 L 233 144.5 L 233 146.5 L 233.5 148 L 235 147.5 L 235 149.5 L 236 154 L 239 155.5 L 237 155.5 L 237 158 Q 239.7 156.9 239 159.5 L 238 160.5 L 238 175.5 L 238.5 177 L 237 176.5 L 237.5 180 L 239 179.5 L 236 180.5 L 235 184.5 L 235.5 186 L 234 185.5 L 235 187.5 L 233 187.5 L 234 189.5 L 232 189.5 L 227 196.5 L 227.5 198 L 226.5 197 L 219 204.5 Q 219.8 206.8 217.5 206 L 214 209.5 L 215 210.5 Q 215.8 212.8 213.5 212 L 211.5 212 L 207.5 216 L 204.5 218 L 201 221.5 L 201 223.5 L 199.5 226 Q 197.3 225.3 198 227.5 L 196 228.5 L 195.5 227 L 186 238.5 L 186.5 240 Q 184.7 237.3 183 241.5 L 182 244.5 L 182.5 246 Q 181.3 243.8 180 246.5 L 178 252.5 L 178.5 254 L 177 253.5 L 172 272.5 L 172 290.5 L 174 297.5 Q 171.5 299 175 300.5 L 176 303.5 L 174.5 303 L 170.5 301 L 170 303 Q 167.3 304.1 168 301.5 L 167 301.5 L 166 304.5 L 167.5 305 L 169 304.5 L 166.5 306 L 164 305.5 L 165 302.5 L 163.5 301 L 163 304 Q 160.3 302.9 161 305.5 L 160.5 308 L 158 306.5 L 157.5 308 L 157 306 L 155 306 Q 156.1 308.7 153.5 308 L 151.5 307 Q 148.8 308.2 151 309.5 Q 152.1 312.8 149.5 312 L 148 311.5 L 147.5 314 L 146.5 311 L 144 312.5 L 143.5 311 L 141.5 314 L 142 312.5 L 142 311 L 136.5 311 L 136 309.5 Q 138.5 308 135 306.5 L 125.5 277 L 124.5 279 L 124 277.5 L 125 274.5 L 123.5 272 L 122 272.5 L 123 270.5 L 121 270.5 L 122 267.5 L 116.5 252 L 115 252.5 L 116 249.5 L 114 249.5 L 116 246.5 L 114 246 Q 115.5 242.2 112.5 243 L 111.5 241 L 113 241.5 L 111 238.5 L 112 237.5 L 109 234.5 L 107 224.5 L 108 222.5 L 107 220.5 L 108 218.5 L 106 215.5 L 107 210.5 L 107 208.5 Q 108.3 201.7 106 198.5 L 108 187.5 L 114 173 Q 116.7 174.1 116 171.5 L 117.5 169 L 119 169.5 Q 120.4 163.4 125.5 161 L 129 160 L 130 156 L 134 155 L 135.5 152 L 145 148 Q 143.9 145.3 146.5 146 L 151 144 Q 149.8 141 153.5 142 L 160.5 138 Q 162 140.5 163.5 137 L 168.5 135 L 170.5 135 L 175 135 Q 173.9 132.3 176.5 133 L 178.5 133 L 181.5 132 L 183.5 133 L 186.5 131 Z M 178 188 Q 178 191 175 190 L 172 198 L 170 199 L 170 201 L 169 200 L 160 217 L 161 219 L 160 219 L 160 221 L 159 221 L 159 223 L 157 224 L 158 226 L 156 226 L 157 228 L 155 228 L 156 231 L 154 231 L 155 233 L 153 233 L 151 240 L 152 243 L 150 243 L 151 247 L 150 246 L 146 261 Q 144 267 147 269 L 146 268 L 143 280 L 144 295 L 145 291 L 147 296 L 154 268 L 153 264 L 155 264 L 154 260 L 156 260 L 155 256 L 157 256 L 159 249 L 158 245 L 160 245 L 161 241 L 160 238 L 162 238 L 163 234 L 162 231 L 164 230 L 163 227 L 165 227 L 164 225 L 166 225 L 165 223 L 167 222 L 166 220 L 168 219 L 167 217 L 169 216 L 168 214 L 170 214 L 172 208 L 171 206 L 173 205 L 172 203 L 174 202 L 175 200 L 174 198 L 176 197 L 175 196 L 177 195 L 176 194 L 178 191 L 178 188 Z M 172 295 L 170 297 L 172 297 L 172 295 Z " /><path fill="rgb(0,120,54)" stroke="rgb(0,120,54)" stroke-width="1" opacity="0.9921568627450981" d="M 239.5 163 L 240 170.5 L 239 170.5 L 239.5 163 Z " /><path fill="rgb(0,120,54)" stroke="rgb(0,120,54)" stroke-width="1" opacity="0.9921568627450981" d="M 98.5 170 L 98 171.5 L 96.5 178 L 96 175.5 L 98.5 170 Z " /><path fill="rgb(0,120,54)" stroke="rgb(0,120,54)" stroke-width="1" opacity="0.9921568627450981" d="M 95.5 172 L 93.5 175 L 92 174.5 L 95.5 172 Z " /><path fill="rgb(0,120,54)" stroke="rgb(0,120,54)" stroke-width="1" opacity="0.9921568627450981" d="M 95.5 179 L 96 181.5 L 95 181.5 L 95.5 179 Z " /><path fill="rgb(0,120,54)" stroke="rgb(0,120,54)" stroke-width="1" opacity="0.9921568627450981" d="M 85.5 183 L 83.5 186 L 82 185.5 L 85.5 183 Z " /><path fill="rgb(0,120,54)" stroke="rgb(0,120,54)" stroke-width="1" opacity="0.9921568627450981" d="M 94.5 183 L 95 186.5 L 93.5 193 L 93 187.5 L 94.5 183 Z " /><path fill="rgb(0,120,54)" stroke="rgb(0,120,54)" stroke-width="1" opacity="0.9921568627450981" d="M 82.5 187 L 81.5 189 L 80 188.5 L 82.5 187 Z " /><path fill="rgb(0,120,54)" stroke="rgb(0,120,54)" stroke-width="1" opacity="0.9921568627450981" d="M 80.5 190 L 79.5 192 L 80.5 190 Z " /><path fill="rgb(0,120,54)" stroke="rgb(0,120,54)" stroke-width="1" opacity="0.9921568627450981" d="M 92.5 194 L 93 220.5 L 92 220.5 L 92.5 194 Z " /><path fill="rgb(0,120,54)" stroke="rgb(0,120,54)" stroke-width="1" opacity="0.9921568627450981" d="M 75.5 198 L 75 199.5 L 73.5 203 L 74 201.5 L 75.5 198 Z " /><path fill="rgb(0,120,54)" stroke="rgb(0,120,54)" stroke-width="1" opacity="0.9921568627450981" d="M 72.5 204 L 73 205.5 L 68.5 218 L 68 215.5 L 72.5 204 Z " /><path fill="rgb(0,120,54)" stroke="rgb(0,120,54)" stroke-width="1" opacity="0.9921568627450981" d="M 228.5 216 L 226.5 219 L 228.5 216 Z " /><path fill="rgb(0,120,54)" stroke="rgb(0,120,54)" stroke-width="1" opacity="0.9921568627450981" d="M 93.5 222 L 95 233 L 97 233.5 L 96 236.5 L 96.5 238 L 94 232.5 L 93.5 222 Z " /><path fill="rgb(0,120,54)" stroke="rgb(0,120,54)" stroke-width="1" opacity="0.9921568627450981" d="M 65.5 224 L 66 228.5 L 65 228.5 L 65.5 224 Z " /><path fill="rgb(0,120,54)" stroke="rgb(0,120,54)" stroke-width="1" opacity="0.9921568627450981" d="M 64.5 230 L 65 232.5 L 64 232.5 L 64.5 230 Z " /><path fill="rgb(0,120,54)" stroke="rgb(0,120,54)" stroke-width="1" opacity="0.9921568627450981" d="M 63.5 235 L 64 247.5 L 63 247.5 L 63.5 235 Z " /><path fill="rgb(0,120,54)" stroke="rgb(0,120,54)" stroke-width="1" opacity="0.9921568627450981" d="M 96.5 239 L 100 250.5 L 99 250.5 L 96.5 239 Z " /><path fill="rgb(0,120,54)" stroke="rgb(0,120,54)" stroke-width="1" opacity="0.9921568627450981" d="M 201.5 243 L 200.5 245 L 201.5 243 Z " /><path fill="rgb(0,120,54)" stroke="rgb(0,120,54)" stroke-width="1" opacity="0.9921568627450981" d="M 63.5 256 L 64 260.5 L 63 260.5 L 63.5 256 Z " /><path fill="rgb(0,120,54)" stroke="rgb(0,120,54)" stroke-width="1" opacity="0.9921568627450981" d="M 100 265 L 105 267.5 L 106.5 271 L 108 270.5 L 107 272.5 L 108.5 276 L 110 275.5 L 109 278.5 L 111 278.5 L 111 280.5 L 111 283 Q 113.7 281.9 113 284.5 L 112.5 286 Q 115.1 285.2 114 288.5 L 119 300.5 L 119 302.5 Q 122 309 122 318.5 L 120 317.5 L 121 315.5 L 116 312 Q 115 309 118 310 L 118 306.5 L 116.5 304 L 116 306.5 L 116.5 308 Q 114.3 308.8 115 306.5 L 113 305.5 Q 113.8 308.1 110.5 307 L 108.5 306 Q 107 308.5 105.5 305 L 102.5 306 L 103.5 303 L 100.5 302 L 100.5 304 L 96.5 302 L 95.5 305 Q 92.3 303.3 96 301.5 Q 97.1 298.2 94.5 299 L 92 300 L 91 302.5 L 91.5 304 L 88.5 302 L 86.5 303 L 86.5 302 L 89 300.5 L 85.5 300 L 83.5 301 L 81.5 300 L 81.5 302 L 79 301 Q 80.1 303.7 77.5 303 L 75 302 L 74.5 304 L 69 289.5 L 70 287 Q 67 288.3 68 284.5 L 67 281.5 L 68 279.5 L 66 279.5 L 64 268.5 L 65 268.5 L 65.5 270 L 68.5 268 L 69 269.5 L 68.5 271 Q 70.8 271.8 70 269.5 L 72 270.5 L 71.5 272 L 74.5 270 L 77 268.5 L 76.5 267 L 78 267 L 78 271 L 82 271 L 83.5 267 Q 85.8 266.3 85 268.5 L 87 268.5 L 87.5 270 L 88.5 267 L 90.5 268 L 94 266 Q 92.9 268.7 95.5 268 L 95.5 266 L 97.5 267 L 100 266.5 L 100 265 Z M 102 267 L 102 269 L 104 268 L 102 267 Z M 100 268 L 101 270 Q 102 267 100 268 Z M 67 270 Q 65 273 68 272 L 67 270 Z M 67 273 L 66 276 L 67 276 L 67 273 Z M 79 298 Q 77 301 80 300 L 79 298 Z M 108 300 L 109 302 L 112 301 L 108 300 Z M 113 302 L 111 305 L 113 304 L 113 302 Z M 115 302 L 115 305 Q 118 304 115 302 Z M 106 303 L 108 305 L 109 305 L 106 303 Z " /><path fill="rgb(0,120,54)" stroke="rgb(0,120,54)" stroke-width="1" opacity="0.9921568627450981" d="M 187.5 274 L 188 276.5 L 187 276.5 L 187.5 274 Z " /><path fill="rgb(0,120,54)" stroke="rgb(0,120,54)" stroke-width="1" opacity="0.9921568627450981" d="M 244.5 281 L 243.5 283 L 244.5 281 Z " /><path fill="rgb(0,120,54)" stroke="rgb(0,120,54)" stroke-width="1" opacity="0.9921568627450981" d="M 187.5 284 L 188 288.5 L 187 288.5 L 187.5 284 Z " /><path fill="rgb(0,120,54)" stroke="rgb(0,120,54)" stroke-width="1" opacity="0.9921568627450981" d="M 241.5 286 L 240.5 288 L 241.5 286 Z " /><path fill="rgb(0,120,54)" stroke="rgb(0,120,54)" stroke-width="1" opacity="0.9921568627450981" d="M 231.5 298 L 230.5 300 L 231.5 298 Z " /><path fill="rgb(0,120,54)" stroke="rgb(0,120,54)" stroke-width="1" opacity="0.9921568627450981" d="M 77.5 304 L 79 306.5 L 76 308 L 75 305.5 L 77 305.5 L 77.5 304 Z " /><path fill="rgb(0,120,54)" stroke="rgb(0,120,54)" stroke-width="1" opacity="0.9921568627450981" d="M 79.5 304 Q 82.8 302.9 82 305.5 L 80.5 305 L 79.5 304 Z " /><path fill="rgb(0,120,54)" stroke="rgb(0,120,54)" stroke-width="1" opacity="0.9921568627450981" d="M 176.5 305 L 177 307.5 L 176 307.5 L 176.5 305 Z " /><path fill="rgb(0,120,54)" stroke="rgb(0,120,54)" stroke-width="1" opacity="0.9921568627450981" d="M 201.5 306 L 200.5 308 L 199 307.5 L 201.5 306 Z " /><path fill="rgb(0,120,54)" stroke="rgb(0,120,54)" stroke-width="1" opacity="0.9921568627450981" d="M 195.5 308 L 198 309.5 L 196.5 309 L 195.5 308 Z " /><path fill="rgb(0,120,54)" stroke="rgb(0,120,54)" stroke-width="1" opacity="0.9921568627450981" d="M 77.5 309 L 79 311.5 L 78 311.5 L 77.5 309 Z " /><path fill="rgb(0,120,54)" stroke="rgb(0,120,54)" stroke-width="1" opacity="0.9921568627450981" d="M 152.5 309 Q 156.3 308 155 311 L 152.5 309 Z " /><path fill="rgb(0,120,54)" stroke="rgb(0,120,54)" stroke-width="1" opacity="0.9921568627450981" d="M 218.5 311 L 214.5 316 L 218.5 311 Z " /><path fill="rgb(0,120,54)" stroke="rgb(0,120,54)" stroke-width="1" opacity="0.9921568627450981" d="M 80.5 312 L 85 320.5 L 83 319.5 L 80 314.5 L 80.5 312 Z " /><path fill="rgb(0,120,54)" stroke="rgb(0,120,54)" stroke-width="1" opacity="0.9921568627450981" d="M 137.5 312 L 139 314.5 L 137 313.5 L 137.5 312 Z " /><path fill="rgb(0,120,54)" stroke="rgb(0,120,54)" stroke-width="1" opacity="0.9921568627450981" d="M 118.5 317 L 119 318.5 L 117.5 321 L 117 319.5 L 118.5 317 Z " /><path fill="rgb(0,120,54)" stroke="rgb(0,120,54)" stroke-width="1" opacity="0.9921568627450981" d="M 211.5 317 L 210.5 320 L 216 322.5 L 214.5 323 L 209 319.5 L 211.5 317 Z " /><path fill="rgb(0,120,54)" stroke="rgb(0,120,54)" stroke-width="1" opacity="0.9921568627450981" d="M 122.5 320 L 127 340.5 L 126 340.5 L 122.5 326 L 122 328 Q 119 329.3 120 325.5 L 122 325.5 L 121 322.5 L 122.5 320 Z " /><path fill="rgb(0,120,54)" stroke="rgb(0,120,54)" stroke-width="1" opacity="0.9921568627450981" d="M 139.5 320 L 140 322.5 L 139 322.5 L 139.5 320 Z " /><path fill="rgb(0,120,54)" stroke="rgb(0,120,54)" stroke-width="1" opacity="0.9921568627450981" d="M 85.5 322 L 88 325.5 L 87 325.5 L 85.5 322 Z " /><path fill="rgb(0,120,54)" stroke="rgb(0,120,54)" stroke-width="1" opacity="0.9921568627450981" d="M 267.5 322 L 269 322.5 L 265.5 324 L 265.5 323 L 267.5 322 Z " /><path fill="rgb(0,120,54)" stroke="rgb(0,120,54)" stroke-width="1" opacity="0.9921568627450981" d="M 223 325 L 226 325.5 L 223.5 327 L 223 325 Z " /><path fill="rgb(0,120,54)" stroke="rgb(0,120,54)" stroke-width="1" opacity="0.9921568627450981" d="M 228 326 L 232 326.5 L 228 328 L 228 326 Z " /><path fill="rgb(0,120,54)" stroke="rgb(0,120,54)" stroke-width="1" opacity="0.9921568627450981" d="M 89.5 327 L 91 329.5 L 90 329.5 L 89.5 327 Z " /><path fill="rgb(0,120,54)" stroke="rgb(0,120,54)" stroke-width="1" opacity="0.9921568627450981" d="M 95.5 334 L 96.5 336 L 95.5 334 Z " /><path fill="rgb(0,120,54)" stroke="rgb(0,120,54)" stroke-width="1" opacity="0.9921568627450981" d="M 98.5 337 L 100.5 340 L 98.5 337 Z " /><path fill="rgb(0,120,54)" stroke="rgb(0,120,54)" stroke-width="1" opacity="0.9921568627450981" d="M 127.5 342 L 128 344.5 L 127 344.5 L 127.5 342 Z " /><path fill="rgb(0,120,54)" stroke="rgb(0,120,54)" stroke-width="1" opacity="0.9921568627450981" d="M 107.5 346 L 109.5 349 L 107.5 346 Z " /><path fill="rgb(0,120,54)" stroke="rgb(0,120,54)" stroke-width="1" opacity="0.9921568627450981" d="M 111.5 349 L 114 349.5 L 113.5 351 L 120 355.5 L 118.5 355 Q 113 352.9 111.5 349 Z " /><path fill="rgb(0,120,54)" stroke="rgb(0,120,54)" stroke-width="1" opacity="0.9921568627450981" d="M 129.5 350 L 132 352.5 L 137 365.5 L 135.5 365 L 122 357.5 L 123.5 358 L 128 360 Q 126.9 357.3 129.5 358 L 130.5 360 L 128 360.5 L 133.5 363 L 134 361.5 Q 130.5 360 133 358.5 L 129.5 350 Z " /><path fill="rgb(0,120,54)" stroke="rgb(0,120,54)" stroke-width="1" opacity="0.9921568627450981" d="M 124.5 353 L 127 354.5 Q 125 359 123 355.5 L 124.5 353 Z " /><path fill="rgb(0,91,69)" stroke="rgb(0,91,69)" stroke-width="1" opacity="0.9803921568627451" d="M 193.5 73 L 199 75.5 L 197.5 76 L 193.5 74 L 193.5 73 Z " /><path fill="rgb(0,91,69)" stroke="rgb(0,91,69)" stroke-width="1" opacity="0.9803921568627451" d="M 234.5 73 Q 242.6 73.9 247 78.5 L 251 86.5 L 251 91.5 L 253 93.5 L 252 98.5 L 252.5 100 Q 249.1 99.1 251 104.5 L 248 114 Q 245.3 112.9 246 115.5 L 241.5 121 L 238 122 L 237.5 124 L 235.5 124 L 226.5 125 L 221 123 Q 222.1 120.3 219.5 121 Q 211.6 112.9 214 94.5 L 219.5 83 L 219 84.5 Q 212.9 92.9 215 109.5 Q 216.5 118 222.5 122 Q 225.4 124.6 231.5 124 L 237.5 122 L 246 113.5 Q 251.1 106.6 251 94.5 L 249 84.5 L 243.5 77 L 234.5 74 L 234.5 73 Z " /><path fill="rgb(0,91,69)" stroke="rgb(0,91,69)" stroke-width="1" opacity="0.9803921568627451" d="M 229.5 74 L 233 74.5 Q 224.3 75.8 220.5 82 L 223 78.5 Q 222.2 75.9 225.5 77 L 229.5 74 Z " /><path fill="rgb(0,91,69)" stroke="rgb(0,91,69)" stroke-width="1" opacity="0.9803921568627451" d="M 202.5 82 L 203 84.5 L 202 84.5 L 202.5 82 Z " /><path fill="rgb(0,91,69)" stroke="rgb(0,91,69)" stroke-width="1" opacity="0.9803921568627451" d="M 203.5 86 L 204 97.5 L 203 97.5 L 203.5 86 Z " /><path fill="rgb(0,91,69)" stroke="rgb(0,91,69)" stroke-width="1" opacity="0.9803921568627451" d="M 176.5 91 L 177 93.5 L 176 93.5 L 176.5 91 Z " /><path fill="rgb(0,91,69)" stroke="rgb(0,91,69)" stroke-width="1" opacity="0.9803921568627451" d="M 176.5 97 L 177 104.5 L 176 104.5 L 176.5 97 Z " /><path fill="rgb(0,91,69)" stroke="rgb(0,91,69)" stroke-width="1" opacity="0.9803921568627451" d="M 202.5 100 L 203 103.5 L 201.5 106 L 201 104.5 L 202.5 100 Z " /><path fill="rgb(0,91,69)" stroke="rgb(0,91,69)" stroke-width="1" opacity="0.9803921568627451" d="M 200.5 107 L 201 109 L 199 108.5 L 200.5 107 Z " /><path fill="rgb(0,91,69)" stroke="rgb(0,91,69)" stroke-width="1" opacity="0.9803921568627451" d="M 179.5 110 L 181.5 113 L 179.5 110 Z " /><path fill="rgb(0,91,69)" stroke="rgb(0,91,69)" stroke-width="1" opacity="0.9803921568627451" d="M 198.5 110 L 199 111.5 L 196.5 113 L 198.5 110 Z " /><path fill="rgb(0,91,69)" stroke="rgb(0,91,69)" stroke-width="1" opacity="0.9803921568627451" d="M 194.5 113 L 194 114.5 L 193.5 116 L 192.5 114 L 194.5 113 Z " /><path fill="rgb(0,91,69)" stroke="rgb(0,91,69)" stroke-width="1" opacity="0.9803921568627451" d="M 156.5 122 L 159 122.5 L 156.5 123 L 156.5 122 Z " /><path fill="rgb(0,91,69)" stroke="rgb(0,91,69)" stroke-width="1" opacity="0.9803921568627451" d="M 189.5 131 L 194 131.5 L 189.5 132 L 189.5 131 Z " /><path fill="rgb(0,91,69)" stroke="rgb(0,91,69)" stroke-width="1" opacity="0.9803921568627451" d="M 200.5 131 L 207 131.5 L 200.5 132 L 200.5 131 Z " /><path fill="rgb(0,91,69)" stroke="rgb(0,91,69)" stroke-width="1" opacity="0.9803921568627451" d="M 210.5 132 L 213 132.5 L 210.5 133 L 210.5 132 Z " /><path fill="rgb(0,91,69)" stroke="rgb(0,91,69)" stroke-width="1" opacity="0.9803921568627451" d="M 138.5 133 L 137.5 135 L 138.5 133 Z " /><path fill="rgb(0,91,69)" stroke="rgb(0,91,69)" stroke-width="1" opacity="0.9803921568627451" d="M 172.5 134 L 175 134.5 L 172.5 135 L 172.5 134 Z " /><path fill="rgb(0,91,69)" stroke="rgb(0,91,69)" stroke-width="1" opacity="0.9803921568627451" d="M 217.5 134 L 223 136.5 L 221.5 136 L 217.5 135 L 217.5 134 Z " /><path fill="rgb(0,91,69)" stroke="rgb(0,91,69)" stroke-width="1" opacity="0.9803921568627451" d="M 228.5 139 L 236 150.5 L 235 150.5 L 228 140.5 L 228.5 139 Z " /><path fill="rgb(0,91,69)" stroke="rgb(0,91,69)" stroke-width="1" opacity="0.9803921568627451" d="M 237.5 155 L 238 157.5 L 237 157.5 L 237.5 155 Z " /><path fill="rgb(0,91,69)" stroke="rgb(0,91,69)" stroke-width="1" opacity="0.9803921568627451" d="M 239.5 159 L 239 160.5 L 239 174.5 L 240 175.5 L 238 176 Q 237.6 184.7 233 190.5 L 215.5 210 L 196 227.5 L 186 239.5 L 184 245 Q 181.3 243.9 182 246.5 L 178 253.5 L 174 268.5 L 174 291.5 L 179 309 Q 182.3 307.7 181 312.5 L 192.5 326 Q 194.8 325.3 194 327.5 Q 203.5 335 216.5 339 Q 218 336.5 219.5 340 L 223.5 339 L 225.5 341 L 235.5 341 L 240.5 340 L 241.5 341 L 249.5 341 Q 251 337.5 252.5 340 L 254.5 339 L 256.5 339 L 258.5 338 L 260.5 339 L 263.5 337 L 265.5 337 L 277.5 333 L 273 338.5 L 266.5 346 L 252.5 357 L 240.5 365 L 238 365 Q 239.1 367.7 236.5 367 L 229.5 371 L 209.5 378 L 208 377.5 L 207.5 379 L 202.5 378 Q 201 381.5 199.5 379 L 195.5 380 L 194.5 379 Q 184.2 380.3 177.5 378 L 176 378.5 Q 176.8 375.9 173.5 377 Q 160.1 373.4 153 363.5 L 152 360 Q 149.3 361.1 150 358.5 Q 143.6 350.5 142 339 Q 139.3 340.1 140 337.5 L 141 335 L 139 334.5 L 140 332.5 L 137 325.5 L 137 320.5 L 133 302.5 L 126 280 L 124 279.5 L 125 277 Q 121.3 278.4 123 272.5 L 120 267.5 L 113 243.5 L 114 243.5 L 117 255.5 L 133 297.5 L 134 304.5 L 136.5 308 L 138 307.5 L 136 311 L 141.5 311 L 142 312.5 L 143 312.5 L 145.5 308 L 145 309.5 L 144 312.5 L 147 311.5 L 147.5 314 L 148.5 311 L 151 312 L 150 308.5 L 152.5 307 L 155 308 Q 154 305 157 306 L 157.5 308 L 158.5 306 Q 159.8 308.2 161 305.5 Q 160.3 302.9 163 304 L 163 301.5 L 165 302.5 Q 162.8 303.8 165.5 305 L 168.5 300 L 175 303 Q 175.8 299.6 173 298.5 L 174 296.5 L 172 290.5 L 172 272.5 L 174 262.5 L 180 246.5 Q 190.4 230.4 204.5 218 L 207.5 216 L 217.5 206 L 219 206 L 219 204.5 L 230 193.5 L 236 182.5 Q 239.7 174.2 238 160.5 L 239.5 159 Z M 168 301 Q 167 304 170 303 Q 171 300 168 301 Z M 177 305 L 176 308 L 177 308 L 177 305 Z M 153 309 L 155 311 Q 156 308 153 309 Z M 138 312 L 137 314 L 139 315 L 138 312 Z M 140 320 L 139 323 L 140 323 L 140 320 Z " /><path fill="rgb(0,91,69)" stroke="rgb(0,91,69)" stroke-width="1" opacity="0.9803921568627451" d="M 174.5 198 L 175 199.5 L 173.5 202 L 173 200.5 L 174.5 198 Z " /><path fill="rgb(0,91,69)" stroke="rgb(0,91,69)" stroke-width="1" opacity="0.9803921568627451" d="M 169.5 199 L 169 200.5 L 160.5 218 L 160 216.5 L 169.5 199 Z " /><path fill="rgb(0,91,69)" stroke="rgb(0,91,69)" stroke-width="1" opacity="0.9803921568627451" d="M 106.5 200 L 107 208.5 L 106 208.5 L 106.5 200 Z " /><path fill="rgb(0,91,69)" stroke="rgb(0,91,69)" stroke-width="1" opacity="0.9803921568627451" d="M 171.5 206 L 172 207.5 L 168.5 216 L 168 214.5 L 171.5 206 Z " /><path fill="rgb(0,91,69)" stroke="rgb(0,91,69)" stroke-width="1" opacity="0.9803921568627451" d="M 106.5 210 L 107 214.5 L 106 214.5 L 106.5 210 Z " /><path fill="rgb(0,91,69)" stroke="rgb(0,91,69)" stroke-width="1" opacity="0.9803921568627451" d="M 156.5 225 L 157 226.5 L 155.5 229 L 155 227.5 L 156.5 225 Z " /><path fill="rgb(0,91,69)" stroke="rgb(0,91,69)" stroke-width="1" opacity="0.9803921568627451" d="M 162.5 231 L 163 233.5 Q 153.6 261.1 148 292.5 L 145.5 297 L 146 295.5 L 150 274.5 L 162.5 231 Z " /><path fill="rgb(0,91,69)" stroke="rgb(0,91,69)" stroke-width="1" opacity="0.9803921568627451" d="M 153.5 233 L 154 235.5 L 151 242.5 L 147 261.5 L 146 275.5 L 145 276.5 L 145 290.5 L 143.5 295 L 143 279.5 L 145 273.5 L 148 250.5 L 153.5 233 Z " /><path fill="rgb(0,91,69)" stroke="rgb(0,91,69)" stroke-width="1" opacity="0.9803921568627451" d="M 62.5 248 L 63 258.5 L 62 258.5 L 62.5 248 Z " /><path fill="rgb(0,91,69)" stroke="rgb(0,91,69)" stroke-width="1" opacity="0.9803921568627451" d="M 100 251 Q 103 249.8 102 253.5 L 100 252.5 L 100 251 Z " /><path fill="rgb(0,91,69)" stroke="rgb(0,91,69)" stroke-width="1" opacity="0.9803921568627451" d="M 102.5 255 L 109 272 L 111 272.5 L 110 274.5 L 115 283.5 L 115 286.5 L 121 302.5 L 122 310.5 L 124 313.5 L 123 318 L 125 318.5 L 124 322.5 L 126 325.5 L 125 327.5 Q 128.5 329 126 330.5 L 128 333.5 L 128 338.5 L 138 366 Q 141.3 364.7 140 369.5 L 138 368.5 Q 138.8 365.9 135.5 367 L 133 366.5 L 132.5 365 L 131 365.5 L 130.5 364 L 129 364.5 Q 129.8 362.3 127.5 363 L 118.5 358 L 94 338 L 86 325 Q 83.3 326.1 84 323.5 L 80 318.5 L 72 302.5 L 66 286.5 L 63 271.5 L 63 261.5 L 64 261.5 L 65 275.5 L 69 290.5 L 73.5 301 L 75 300.5 L 74 303.5 L 75 303.5 Q 74.3 301.3 76.5 302 L 76.5 300 L 77.5 303 L 80.5 301 L 82.5 300 L 84.5 301 L 84.5 299 L 89 300.5 Q 86.8 301.8 89.5 303 L 92 301.5 Q 91.3 299.3 93.5 300 L 96 299 Q 94.5 302.7 97.5 302 L 100.5 304 L 100.5 302 L 103.5 303 L 105.5 303 L 109 304.5 L 107.5 305 L 104.5 303 L 102.5 306 L 105.5 305 Q 107 308.5 108.5 306 L 111 304.5 L 112.5 302 L 113 303.5 L 110.5 307 Q 113.8 308.1 113 305.5 L 114.5 302 L 117 304.5 L 119 310.5 L 117.5 310 Q 114.9 309.3 116 312 L 121 315.5 L 120 317.5 L 122 318.5 L 120.5 308 L 119 308.5 L 120 304.5 L 103 259.5 L 102.5 255 Z M 80 304 L 81 305 L 82 306 Q 83 303 80 304 Z M 116 304 L 114 306 L 115 308 L 117 308 L 116 304 Z M 77 306 Q 75 309 78 308 L 77 306 Z M 81 312 L 80 315 L 81 315 L 81 312 Z M 123 320 L 121 323 L 123 327 L 124 334 L 125 334 L 123 320 Z M 121 325 Q 118 329 122 328 L 121 325 Z M 126 334 L 125 338 L 126 338 L 126 334 Z M 127 338 L 126 341 L 127 341 L 127 338 Z M 128 342 L 127 345 L 128 345 L 128 342 Z M 131 351 L 131 355 L 132 355 L 131 351 Z M 124 354 L 123 356 Q 125 359 127 355 L 126 354 L 124 354 Z M 134 357 L 132 360 L 134 363 L 133 362 L 130 363 L 136 365 L 134 357 Z M 128 358 L 128 360 L 131 360 L 128 358 Z " /><path fill="rgb(0,91,69)" stroke="rgb(0,91,69)" stroke-width="1" opacity="0.9803921568627451" d="M 171.5 295 L 172 297 L 170 296.5 L 171.5 295 Z " /><path fill="rgb(0,91,69)" stroke="rgb(0,91,69)" stroke-width="1" opacity="0.9803921568627451" d="M 78.5 298 L 79.5 300 Q 76.7 300.7 78.5 298 Z " /><path fill="rgb(0,91,69)" stroke="rgb(0,91,69)" stroke-width="1" opacity="0.9803921568627451" d="M 105.5 299 L 107 301.5 L 105 300.5 L 105.5 299 Z " /><path fill="rgb(0,91,69)" stroke="rgb(0,91,69)" stroke-width="1" opacity="0.9803921568627451" d="M 108 300 L 112 300.5 L 108.5 302 L 108 300 Z " /><path fill="rgb(22,169,35)" stroke="rgb(22,169,35)" stroke-width="1" opacity="0.984313725490196" d="M 249.5 144 L 250 146 L 254 146 Q 252.9 148.7 255.5 148 L 272 162.5 L 276 169 Q 278.7 167.9 278 170.5 L 279 173 Q 281.7 171.9 281 174.5 L 288 184.5 L 297 202.5 L 303 223.5 L 303 225.5 L 305 229.5 L 303 230.5 L 304 235 L 306 235.5 L 304 240.5 L 304 242.5 L 305 244.5 L 305 256.5 L 304 260.5 L 305 264.5 L 303 270.5 L 303 272.5 L 302 275.5 L 303 277.5 Q 299.5 279 302 280.5 L 300 283.5 L 300 285.5 Q 298.2 295.7 293.5 303 L 292.5 301 L 290 305.5 L 291 307.5 L 290 307.5 L 289.5 306 L 288 308.5 L 289 309.5 L 283.5 315 Q 282.3 312.8 281 315.5 L 280.5 317 Q 279 314.5 277.5 318 L 272 320.5 L 272.5 322 L 270.5 321 L 270.5 323 L 266.5 325 L 266.5 323 Q 264.3 322.3 265 324.5 L 263.5 324 Q 261.3 323.3 262 325.5 L 258.5 327 L 255.5 326 L 251.5 328 L 247.5 327 L 247.5 328 L 249 328.5 L 247.5 329 L 246.5 328 L 236.5 328 L 231.5 326 L 222.5 325 L 222.5 327 L 221.5 324 L 210 319.5 L 214 316.5 L 212 315.5 L 214.5 314 L 215.5 315 L 223 307.5 L 222 306.5 L 225.5 303 L 227.5 304 L 227.5 302 Q 230.8 303.1 230 300.5 L 234 296.5 Q 231.8 295.3 234.5 294 L 237 292.5 L 238.5 289 L 240 289.5 L 243 284.5 L 242.5 283 L 245 281.5 L 250 270.5 L 250 268.5 L 252 263 L 254 262.5 L 254 260.5 L 253 258.5 L 256 256.5 L 255 255.5 L 258 250.5 Q 258.8 248.3 256.5 249 L 256.5 248 L 259 246.5 L 258 244.5 L 260 242.5 L 258.5 240 Q 259.8 242.3 261 239.5 L 260 236.5 L 263 222.5 L 261 223.5 Q 262 228.5 259 227.5 L 259 231.5 L 252 248 L 249 249.5 L 246 254.5 L 246.5 256 L 245 256.5 L 245.5 258 Q 242.9 257.2 244 260.5 L 240 267 L 238 267.5 Q 240.3 268.8 237.5 270 L 235 271.5 Q 237.3 272.8 234.5 274 L 232 275.5 L 232.5 277 L 229 279.5 Q 231.3 280.8 228.5 282 L 225.5 284 L 222 287.5 L 222 289.5 L 220.5 292 L 219.5 290 L 218.5 293 L 217 292.5 L 215.5 297 L 214.5 295 L 212.5 299 L 211.5 298 L 207.5 302 L 206 302.5 L 207 304.5 L 206 304.5 L 205.5 303 L 197.5 309 Q 195.8 305.9 194 307.5 L 195 305 Q 192.3 306.1 193 303.5 L 190.5 298 L 189 298.5 L 190 296.5 L 187 290.5 Q 189.3 289.2 188 284.5 Q 185.4 283.1 186 278.5 Q 189.3 277.3 188 271.5 L 186 271.5 L 189 270 L 190 263.5 L 189.5 262 Q 192.9 262.9 191 257.5 L 195.5 251 L 197 250.5 L 196 248 L 199 247.5 L 198 245.5 L 199 245.5 L 199.5 247 L 202 243.5 Q 199.5 242 203 240.5 L 205.5 237 L 209 235.5 L 208.5 234 L 212 233 L 212 230.5 L 217.5 225 L 229 216.5 L 231 212 Q 234.7 213.5 234 210.5 Q 239.3 207.8 240 202 Q 242.7 203.1 242 200.5 L 243 198 Q 245.7 199.1 245 196.5 L 252 181.5 L 251 179.5 Q 253.8 177.8 253 172.5 Q 250.7 171.3 252 166.5 L 253 162.5 L 251 156.5 L 251 154.5 L 249.5 144 Z M 226 304 L 224 306 L 226 306 L 226 304 Z " /><path fill="rgb(96,192,108)" stroke="rgb(96,192,108)" stroke-width="1" opacity="0.6941176470588235" d="M 186.5 72 L 187 74 L 185 73.5 L 186.5 72 Z " /><path fill="rgb(96,192,108)" stroke="rgb(96,192,108)" stroke-width="1" opacity="0.6941176470588235" d="M 196.5 72 L 200 74.5 L 201 76.5 L 197.5 74 Q 194.7 74.7 196.5 72 Z " /><path fill="rgb(96,192,108)" stroke="rgb(96,192,108)" stroke-width="1" opacity="0.6941176470588235" d="M 226.5 74 L 227 76 L 225 75.5 L 226.5 74 Z " /><path fill="rgb(96,192,108)" stroke="rgb(96,192,108)" stroke-width="1" opacity="0.6941176470588235" d="M 248.5 79 L 252 85.5 L 250 84.5 L 248.5 79 Z " /><path fill="rgb(96,192,108)" stroke="rgb(96,192,108)" stroke-width="1" opacity="0.6941176470588235" d="M 251.5 87 L 253 90.5 L 251 89.5 L 251.5 87 Z " /><path fill="rgb(96,192,108)" stroke="rgb(96,192,108)" stroke-width="1" opacity="0.6941176470588235" d="M 160.5 88 L 161.5 90 L 160.5 88 Z " /><path fill="rgb(96,192,108)" stroke="rgb(96,192,108)" stroke-width="1" opacity="0.6941176470588235" d="M 204.5 88 Q 206.9 91.3 206 97 L 204 96.5 L 204.5 88 Z " /><path fill="rgb(96,192,108)" stroke="rgb(96,192,108)" stroke-width="1" opacity="0.6941176470588235" d="M 214 88 Q 217 87 216 90 Q 213 91 214 88 Z " /><path fill="rgb(96,192,108)" stroke="rgb(96,192,108)" stroke-width="1" opacity="0.6941176470588235" d="M 175.5 90 L 176 94 Q 173.3 95.1 174 92.5 L 175.5 90 Z " /><path fill="rgb(96,192,108)" stroke="rgb(96,192,108)" stroke-width="1" opacity="0.6941176470588235" d="M 213 91 Q 216 90 215 93 Q 212 94 213 91 Z " /><path fill="rgb(96,192,108)" stroke="rgb(96,192,108)" stroke-width="1" opacity="0.6941176470588235" d="M 168.5 94 L 170 96.5 L 168 95.5 L 168.5 94 Z " /><path fill="rgb(96,192,108)" stroke="rgb(96,192,108)" stroke-width="1" opacity="0.6941176470588235" d="M 213.5 95 L 214 97.5 L 212 98.5 L 213.5 95 Z " /><path fill="rgb(96,192,108)" stroke="rgb(96,192,108)" stroke-width="1" opacity="0.6941176470588235" d="M 147.5 96 L 147 97.5 Q 148.3 102.3 145 101 L 147.5 96 Z " /><path fill="rgb(96,192,108)" stroke="rgb(96,192,108)" stroke-width="1" opacity="0.6941176470588235" d="M 203 101 L 205 101.5 L 203 102.5 L 203 101 Z " /><path fill="rgb(96,192,108)" stroke="rgb(96,192,108)" stroke-width="1" opacity="0.6941176470588235" d="M 252.5 101 L 253 102.5 L 251.5 105 L 251 102.5 L 252.5 101 Z " /><path fill="rgb(96,192,108)" stroke="rgb(96,192,108)" stroke-width="1" opacity="0.6941176470588235" d="M 174.5 102 Q 176.8 101.3 176 103.5 L 174.5 102 Z " /><path fill="rgb(96,192,108)" stroke="rgb(96,192,108)" stroke-width="1" opacity="0.6941176470588235" d="M 171.5 103 L 172 108.5 L 171 108.5 L 171.5 103 Z " /><path fill="rgb(96,192,108)" stroke="rgb(96,192,108)" stroke-width="1" opacity="0.6941176470588235" d="M 212.5 104 L 214 108.5 L 212 107.5 L 212.5 104 Z " /><path fill="rgb(96,192,108)" stroke="rgb(96,192,108)" stroke-width="1" opacity="0.6941176470588235" d="M 201.5 107 L 202 108.5 L 200.5 111 L 200 109.5 L 201.5 107 Z " /><path fill="rgb(96,192,108)" stroke="rgb(96,192,108)" stroke-width="1" opacity="0.6941176470588235" d="M 124.5 109 L 122.5 112 L 124.5 109 Z " /><path fill="rgb(96,192,108)" stroke="rgb(96,192,108)" stroke-width="1" opacity="0.6941176470588235" d="M 137.5 109 L 143 116.5 L 142 116.5 L 137.5 109 Z " /><path fill="rgb(96,192,108)" stroke="rgb(96,192,108)" stroke-width="1" opacity="0.6941176470588235" d="M 145 109 Q 148 107.8 147 111.5 L 145 110.5 L 145 109 Z " /><path fill="rgb(96,192,108)" stroke="rgb(96,192,108)" stroke-width="1" opacity="0.6941176470588235" d="M 177.5 109 L 179 111.5 L 178 111.5 L 177.5 109 Z " /><path fill="rgb(96,192,108)" stroke="rgb(96,192,108)" stroke-width="1" opacity="0.6941176470588235" d="M 249 109 L 251 109.5 L 248.5 114 L 248 111.5 L 249 109 Z " /><path fill="rgb(96,192,108)" stroke="rgb(96,192,108)" stroke-width="1" opacity="0.6941176470588235" d="M 213 111 Q 216 110 215 113 Q 212 114 213 111 Z " /><path fill="rgb(96,192,108)" stroke="rgb(96,192,108)" stroke-width="1" opacity="0.6941176470588235" d="M 182.5 114 L 183.5 116 L 182.5 114 Z " /><path fill="rgb(96,192,108)" stroke="rgb(96,192,108)" stroke-width="1" opacity="0.6941176470588235" d="M 214.5 114 Q 217.1 113.2 216 116.5 L 217 118.5 L 216 118.5 L 214.5 114 Z " /><path fill="rgb(96,192,108)" stroke="rgb(96,192,108)" stroke-width="1" opacity="0.6941176470588235" d="M 143.5 119 L 144 125.5 L 143 125.5 L 143.5 119 Z " /><path fill="rgb(96,192,108)" stroke="rgb(96,192,108)" stroke-width="1" opacity="0.6941176470588235" d="M 119.5 120 L 120 124.5 L 119 124.5 L 118 121.5 L 119.5 120 Z " /><path fill="rgb(96,192,108)" stroke="rgb(96,192,108)" stroke-width="1" opacity="0.6941176470588235" d="M 153.5 122 Q 155.8 121.3 155 123.5 L 153.5 122 Z " /><path fill="rgb(96,192,108)" stroke="rgb(96,192,108)" stroke-width="1" opacity="0.6941176470588235" d="M 238 122 L 240 122.5 L 238 123.5 L 238 122 Z " /><path fill="rgb(96,192,108)" stroke="rgb(96,192,108)" stroke-width="1" opacity="0.6941176470588235" d="M 157 123 Q 162.2 121.3 161 125 Q 155.8 126.7 157 123 Z " /><path fill="rgb(96,192,108)" stroke="rgb(96,192,108)" stroke-width="1" opacity="0.6941176470588235" d="M 191.5 129 L 196 129.5 L 190.5 131 L 191.5 129 Z " /><path fill="rgb(96,192,108)" stroke="rgb(96,192,108)" stroke-width="1" opacity="0.6941176470588235" d="M 200.5 129 L 206 130.5 L 203.5 131 L 200.5 130 L 200.5 129 Z " /><path fill="rgb(96,192,108)" stroke="rgb(96,192,108)" stroke-width="1" opacity="0.6941176470588235" d="M 183 130 L 185 130.5 L 183 131.5 L 183 130 Z " /><path fill="rgb(96,192,108)" stroke="rgb(96,192,108)" stroke-width="1" opacity="0.6941176470588235" d="M 102.5 131 L 103 133.5 L 100.5 137 L 101 135.5 Q 100.3 131.8 102.5 131 Z " /><path fill="rgb(96,192,108)" stroke="rgb(96,192,108)" stroke-width="1" opacity="0.6941176470588235" d="M 178.5 131 L 179 133 L 177 132.5 L 178.5 131 Z " /><path fill="rgb(96,192,108)" stroke="rgb(96,192,108)" stroke-width="1" opacity="0.6941176470588235" d="M 214.5 131 L 215.5 133 Q 212.7 133.7 214.5 131 Z " /><path fill="rgb(96,192,108)" stroke="rgb(96,192,108)" stroke-width="1" opacity="0.6941176470588235" d="M 118.5 133 Q 121.1 132.2 120 135.5 Q 123.2 137.8 122 144.5 L 120.5 147 L 120 143.5 L 121 141.5 L 118.5 133 Z " /><path fill="rgb(96,192,108)" stroke="rgb(96,192,108)" stroke-width="1" opacity="0.6941176470588235" d="M 139.5 133 L 140 134.5 L 138 135.5 L 139.5 133 Z " /><path fill="rgb(96,192,108)" stroke="rgb(96,192,108)" stroke-width="1" opacity="0.6941176470588235" d="M 123.5 134 L 126 135 L 125.5 137 L 123.5 134 Z " /><path fill="rgb(96,192,108)" stroke="rgb(96,192,108)" stroke-width="1" opacity="0.6941176470588235" d="M 249.5 143 L 248.5 145 L 249.5 143 Z " /><path fill="rgb(96,192,108)" stroke="rgb(96,192,108)" stroke-width="1" opacity="0.6941176470588235" d="M 100.5 144 L 102 146.5 L 100 145.5 L 100.5 144 Z " /><path fill="rgb(96,192,108)" stroke="rgb(96,192,108)" stroke-width="1" opacity="0.6941176470588235" d="M 233 144 Q 235.7 142.9 235 145.5 L 237 150.5 L 236 150.5 L 235 146 Q 232 147 233 144 Z " /><path fill="rgb(96,192,108)" stroke="rgb(96,192,108)" stroke-width="1" opacity="0.6941176470588235" d="M 251.5 144 L 252.5 146 Q 249.7 146.7 251.5 144 Z " /><path fill="rgb(96,192,108)" stroke="rgb(96,192,108)" stroke-width="1" opacity="0.6941176470588235" d="M 144.5 145 L 145 147 L 143 146.5 L 144.5 145 Z " /><path fill="rgb(96,192,108)" stroke="rgb(96,192,108)" stroke-width="1" opacity="0.6941176470588235" d="M 249.5 146 L 250 148.5 L 249 148.5 L 249.5 146 Z " /><path fill="rgb(96,192,108)" stroke="rgb(96,192,108)" stroke-width="1" opacity="0.6941176470588235" d="M 254 146 L 257 147.5 L 256.5 149 L 254 148 L 254 146 Z " /><path fill="rgb(96,192,108)" stroke="rgb(96,192,108)" stroke-width="1" opacity="0.6941176470588235" d="M 141.5 147 L 142 149 L 140 148.5 L 141.5 147 Z " /><path fill="rgb(96,192,108)" stroke="rgb(96,192,108)" stroke-width="1" opacity="0.6941176470588235" d="M 101 148 Q 103.7 146.9 103 149.5 L 104 152.5 L 102 151.5 L 101 148 Z " /><path fill="rgb(96,192,108)" stroke="rgb(96,192,108)" stroke-width="1" opacity="0.6941176470588235" d="M 119 148 L 121 148.5 L 118.5 152 L 118 150.5 L 119 148 Z " /><path fill="rgb(96,192,108)" stroke="rgb(96,192,108)" stroke-width="1" opacity="0.6941176470588235" d="M 259.5 150 L 262.5 154 L 259.5 150 Z " /><path fill="rgb(96,192,108)" stroke="rgb(96,192,108)" stroke-width="1" opacity="0.6941176470588235" d="M 250.5 152 L 252 155.5 L 250 156 L 250.5 152 Z " /><path fill="rgb(96,192,108)" stroke="rgb(96,192,108)" stroke-width="1" opacity="0.6941176470588235" d="M 133.5 153 L 132.5 155 L 133.5 153 Z " /><path fill="rgb(96,192,108)" stroke="rgb(96,192,108)" stroke-width="1" opacity="0.6941176470588235" d="M 238.5 156 Q 240.8 155.3 240 157.5 L 238.5 156 Z " /><path fill="rgb(96,192,108)" stroke="rgb(96,192,108)" stroke-width="1" opacity="0.6941176470588235" d="M 128.5 157 L 129 159 L 119.5 167 L 123 162.5 L 125.5 159 L 128.5 157 Z " /><path fill="rgb(96,192,108)" stroke="rgb(96,192,108)" stroke-width="1" opacity="0.6941176470588235" d="M 251.5 159 L 253 165.5 L 252 165.5 L 251.5 159 Z " /><path fill="rgb(96,192,108)" stroke="rgb(96,192,108)" stroke-width="1" opacity="0.6941176470588235" d="M 240.5 162 L 241 172.5 L 239.5 175 L 239 173.5 L 240 172.5 L 240.5 162 Z " /><path fill="rgb(96,192,108)" stroke="rgb(96,192,108)" stroke-width="1" opacity="0.6941176470588235" d="M 272.5 163 L 283 175.5 L 281 174.5 L 279 171.5 L 278 169 Q 275.3 170.1 276 167.5 L 272.5 163 Z " /><path fill="rgb(96,192,108)" stroke="rgb(96,192,108)" stroke-width="1" opacity="0.6941176470588235" d="M 98.5 168 L 97.5 170 L 98.5 168 Z " /><path fill="rgb(96,192,108)" stroke="rgb(96,192,108)" stroke-width="1" opacity="0.6941176470588235" d="M 100.5 169 L 100 170.5 L 99 176.5 L 97.5 178 L 97 176.5 L 100.5 169 Z " /><path fill="rgb(96,192,108)" stroke="rgb(96,192,108)" stroke-width="1" opacity="0.6941176470588235" d="M 115.5 170 L 116 173 Q 113 171.8 114 175.5 L 110.5 181 L 110 179.5 L 115.5 170 Z " /><path fill="rgb(96,192,108)" stroke="rgb(96,192,108)" stroke-width="1" opacity="0.6941176470588235" d="M 92.5 172 L 94 172.5 L 87 178.5 L 92.5 172 Z " /><path fill="rgb(96,192,108)" stroke="rgb(96,192,108)" stroke-width="1" opacity="0.6941176470588235" d="M 252.5 172 L 253 176.5 L 251.5 179 L 251 174.5 L 252.5 172 Z " /><path fill="rgb(96,192,108)" stroke="rgb(96,192,108)" stroke-width="1" opacity="0.6941176470588235" d="M 283.5 177 L 284.5 179 L 283.5 177 Z " /><path fill="rgb(96,192,108)" stroke="rgb(96,192,108)" stroke-width="1" opacity="0.6941176470588235" d="M 97.5 179 L 98 180.5 L 95.5 187 L 95 184.5 L 97.5 179 Z " /><path fill="rgb(96,192,108)" stroke="rgb(96,192,108)" stroke-width="1" opacity="0.6941176470588235" d="M 285.5 180 L 292 188.5 L 299 207.5 L 298 207.5 L 297 202.5 L 285.5 180 Z " /><path fill="rgb(96,192,108)" stroke="rgb(96,192,108)" stroke-width="1" opacity="0.6941176470588235" d="M 84.5 181 L 85 182.5 L 78.5 191 L 78 189.5 L 84.5 181 Z " /><path fill="rgb(96,192,108)" stroke="rgb(96,192,108)" stroke-width="1" opacity="0.6941176470588235" d="M 250 181 L 252 181.5 L 249.5 187 L 249 185.5 L 250 181 Z " /><path fill="rgb(96,192,108)" stroke="rgb(96,192,108)" stroke-width="1" opacity="0.6941176470588235" d="M 237.5 183 L 237 184.5 L 234.5 190 L 234 188.5 L 237.5 183 Z " /><path fill="rgb(96,192,108)" stroke="rgb(96,192,108)" stroke-width="1" opacity="0.6941176470588235" d="M 95.5 188 L 96 189.5 L 94.5 192 L 94 189.5 L 95.5 188 Z " /><path fill="rgb(96,192,108)" stroke="rgb(96,192,108)" stroke-width="1" opacity="0.6941176470588235" d="M 248.5 188 L 249 189.5 L 247.5 192 L 247 190.5 L 248.5 188 Z " /><path fill="rgb(96,192,108)" stroke="rgb(96,192,108)" stroke-width="1" opacity="0.6941176470588235" d="M 177.5 189 L 177 190.5 L 163 226.5 L 151 268.5 L 145.5 294 L 145 280.5 L 146 279.5 L 146 270.5 L 147 269.5 L 148 257.5 L 154 234.5 L 166 206.5 L 177.5 189 Z " /><path fill="rgb(96,192,108)" stroke="rgb(96,192,108)" stroke-width="1" opacity="0.6941176470588235" d="M 232 191 Q 235 190 234 193 Q 231 194 232 191 Z " /><path fill="rgb(96,192,108)" stroke="rgb(96,192,108)" stroke-width="1" opacity="0.6941176470588235" d="M 246.5 193 L 246 194.5 L 245 198 Q 242.3 196.9 243 199.5 L 242 202 Q 239.3 200.9 240 203.5 L 233.5 211 L 236 207.5 L 246.5 193 Z " /><path fill="rgb(96,192,108)" stroke="rgb(96,192,108)" stroke-width="1" opacity="0.6941176470588235" d="M 230.5 194 L 230 195.5 L 228.5 198 L 229 196.5 L 230.5 194 Z " /><path fill="rgb(96,192,108)" stroke="rgb(96,192,108)" stroke-width="1" opacity="0.6941176470588235" d="M 94.5 195 L 95 199.5 L 93.5 202 L 93 196.5 L 94.5 195 Z " /><path fill="rgb(96,192,108)" stroke="rgb(96,192,108)" stroke-width="1" opacity="0.6941176470588235" d="M 74.5 196 L 75 198.5 L 74 201 L 72 200.5 L 74.5 196 Z " /><path fill="rgb(96,192,108)" stroke="rgb(96,192,108)" stroke-width="1" opacity="0.6941176470588235" d="M 71.5 202 L 72 205.5 L 69.5 209 L 70 207.5 L 71.5 202 Z " /><path fill="rgb(96,192,108)" stroke="rgb(96,192,108)" stroke-width="1" opacity="0.6941176470588235" d="M 105.5 205 L 106 209.5 L 105 209.5 L 105.5 205 Z " /><path fill="rgb(96,192,108)" stroke="rgb(96,192,108)" stroke-width="1" opacity="0.6941176470588235" d="M 68 210 L 70 210.5 L 68 211.5 L 68 210 Z " /><path fill="rgb(96,192,108)" stroke="rgb(96,192,108)" stroke-width="1" opacity="0.6941176470588235" d="M 93.5 214 L 95 219.5 L 93 218.5 L 93.5 214 Z " /><path fill="rgb(96,192,108)" stroke="rgb(96,192,108)" stroke-width="1" opacity="0.6941176470588235" d="M 211.5 214 L 209.5 217 L 207 218.5 L 206.5 220 L 206 218.5 L 211.5 214 Z " /><path fill="rgb(96,192,108)" stroke="rgb(96,192,108)" stroke-width="1" opacity="0.6941176470588235" d="M 228.5 214 L 229 215.5 L 218.5 225 L 228.5 214 Z " /><path fill="rgb(96,192,108)" stroke="rgb(96,192,108)" stroke-width="1" opacity="0.6941176470588235" d="M 301.5 215 L 303 218 Q 299.5 219.1 301.5 215 Z " /><path fill="rgb(96,192,108)" stroke="rgb(96,192,108)" stroke-width="1" opacity="0.6941176470588235" d="M 66.5 216 L 67 218.5 L 66 218.5 L 66.5 216 Z " /><path fill="rgb(96,192,108)" stroke="rgb(96,192,108)" stroke-width="1" opacity="0.6941176470588235" d="M 106.5 219 L 107 221.5 L 106 221.5 L 106.5 219 Z " /><path fill="rgb(96,192,108)" stroke="rgb(96,192,108)" stroke-width="1" opacity="0.6941176470588235" d="M 302.5 219 L 304 221.5 L 304 223.5 L 305 228 Q 301.3 229.3 303 223.5 L 302.5 219 Z " /><path fill="rgb(96,192,108)" stroke="rgb(96,192,108)" stroke-width="1" opacity="0.6941176470588235" d="M 262.5 222 L 263 225.5 Q 259.5 227 262 228.5 L 261.5 231 L 259 230.5 Q 258.3 228.3 260.5 229 L 261 226.5 Q 260.3 222.8 262.5 222 Z " /><path fill="rgb(96,192,108)" stroke="rgb(96,192,108)" stroke-width="1" opacity="0.6941176470588235" d="M 94.5 223 L 96 227 Q 92.2 228.2 94.5 223 Z " /><path fill="rgb(96,192,108)" stroke="rgb(96,192,108)" stroke-width="1" opacity="0.6941176470588235" d="M 95.5 229 L 97 231.5 L 95 230.5 L 95.5 229 Z " /><path fill="rgb(96,192,108)" stroke="rgb(96,192,108)" stroke-width="1" opacity="0.6941176470588235" d="M 63.5 230 L 64 232.5 L 62 231.5 L 63.5 230 Z " /><path fill="rgb(96,192,108)" stroke="rgb(96,192,108)" stroke-width="1" opacity="0.6941176470588235" d="M 304.5 230 Q 307 231.2 306 235 Q 301.9 236.2 304.5 230 Z " /><path fill="rgb(96,192,108)" stroke="rgb(96,192,108)" stroke-width="1" opacity="0.6941176470588235" d="M 210.5 231 L 211 232.5 L 209 233.5 L 210.5 231 Z " /><path fill="rgb(96,192,108)" stroke="rgb(96,192,108)" stroke-width="1" opacity="0.6941176470588235" d="M 192.5 232 L 193 233.5 L 190 235.5 L 192.5 232 Z " /><path fill="rgb(96,192,108)" stroke="rgb(96,192,108)" stroke-width="1" opacity="0.6941176470588235" d="M 258.5 232 L 259.5 234 L 261 233.5 Q 262 237.3 259 236 L 258.5 234 L 257.5 236 L 257 234.5 L 258.5 232 Z " /><path fill="rgb(96,192,108)" stroke="rgb(96,192,108)" stroke-width="1" opacity="0.6941176470588235" d="M 97.5 237 L 99 239.5 L 97 238.5 L 97.5 237 Z " /><path fill="rgb(96,192,108)" stroke="rgb(96,192,108)" stroke-width="1" opacity="0.6941176470588235" d="M 256.5 237 L 257 238.5 L 254.5 243 L 254 241.5 L 256.5 237 Z " /><path fill="rgb(96,192,108)" stroke="rgb(96,192,108)" stroke-width="1" opacity="0.6941176470588235" d="M 259.5 237 L 260 240.5 L 258 248 L 256 247.5 L 257 242.5 L 259 240.5 L 259 238.5 L 259.5 237 Z " /><path fill="rgb(96,192,108)" stroke="rgb(96,192,108)" stroke-width="1" opacity="0.6941176470588235" d="M 62.5 238 L 63 242.5 L 62 242.5 L 62.5 238 Z " /><path fill="rgb(96,192,108)" stroke="rgb(96,192,108)" stroke-width="1" opacity="0.6941176470588235" d="M 305.5 239 L 307 241.5 L 307 257.5 L 305.5 261 L 305.5 239 Z " /><path fill="rgb(96,192,108)" stroke="rgb(96,192,108)" stroke-width="1" opacity="0.6941176470588235" d="M 202.5 240 L 201 242.5 Q 201.8 244.8 199.5 244 L 200 242.5 Q 199.3 240.3 201.5 241 L 202.5 240 Z " /><path fill="rgb(96,192,108)" stroke="rgb(96,192,108)" stroke-width="1" opacity="0.6941176470588235" d="M 111.5 243 L 113 245.5 L 112 245.5 L 111.5 243 Z " /><path fill="rgb(96,192,108)" stroke="rgb(96,192,108)" stroke-width="1" opacity="0.6941176470588235" d="M 197.5 245 L 198 248 L 196 247.5 L 197.5 245 Z " /><path fill="rgb(96,192,108)" stroke="rgb(96,192,108)" stroke-width="1" opacity="0.6941176470588235" d="M 112.5 247 Q 114.8 246.3 114 248.5 L 112.5 247 Z " /><path fill="rgb(96,192,108)" stroke="rgb(96,192,108)" stroke-width="1" opacity="0.6941176470588235" d="M 181 247 L 183 247.5 L 180 255 L 178 254.5 L 181 247 Z " /><path fill="rgb(96,192,108)" stroke="rgb(96,192,108)" stroke-width="1" opacity="0.6941176470588235" d="M 250 248 Q 252.7 246.9 252 249.5 L 248 257 L 246 256.5 L 250 248 Z " /><path fill="rgb(96,192,108)" stroke="rgb(96,192,108)" stroke-width="1" opacity="0.6941176470588235" d="M 195.5 249 L 196 250.5 L 193 252.5 L 195.5 249 Z " /><path fill="rgb(96,192,108)" stroke="rgb(96,192,108)" stroke-width="1" opacity="0.6941176470588235" d="M 256.5 249 L 257 251.5 L 255 258 Q 252.3 259.1 253 256.5 L 256.5 249 Z " /><path fill="rgb(96,192,108)" stroke="rgb(96,192,108)" stroke-width="1" opacity="0.6941176470588235" d="M 113.5 250 Q 115.8 249.3 115 251.5 L 113.5 250 Z " /><path fill="rgb(96,192,108)" stroke="rgb(96,192,108)" stroke-width="1" opacity="0.6941176470588235" d="M 114.5 253 Q 117.1 252.2 116 255.5 L 120 267 Q 117 268.3 118 264.5 L 114.5 253 Z " /><path fill="rgb(96,192,108)" stroke="rgb(96,192,108)" stroke-width="1" opacity="0.6941176470588235" d="M 192.5 254 L 193 255.5 L 191 256.5 L 192.5 254 Z " /><path fill="rgb(96,192,108)" stroke="rgb(96,192,108)" stroke-width="1" opacity="0.6941176470588235" d="M 104 257 Q 107 255.8 106 259.5 L 106.5 261 Q 104.3 261.8 105 259.5 L 104 257 Z " /><path fill="rgb(96,192,108)" stroke="rgb(96,192,108)" stroke-width="1" opacity="0.6941176470588235" d="M 177 257 L 179 257.5 L 177 258.5 L 177 257 Z " /><path fill="rgb(96,192,108)" stroke="rgb(96,192,108)" stroke-width="1" opacity="0.6941176470588235" d="M 190.5 258 L 191 259.5 L 190 262 L 188 261.5 L 190.5 258 Z " /><path fill="rgb(96,192,108)" stroke="rgb(96,192,108)" stroke-width="1" opacity="0.6941176470588235" d="M 245.5 258 L 247 258.5 L 244.5 260 L 245.5 258 Z " /><path fill="rgb(96,192,108)" stroke="rgb(96,192,108)" stroke-width="1" opacity="0.6941176470588235" d="M 252 259 Q 254.7 257.9 254 260.5 L 250.5 267 L 250 265.5 Q 252.8 263.5 252 259 Z " /><path fill="rgb(96,192,108)" stroke="rgb(96,192,108)" stroke-width="1" opacity="0.6941176470588235" d="M 176 260 L 178 260.5 L 176 261.5 L 176 260 Z " /><path fill="rgb(96,192,108)" stroke="rgb(96,192,108)" stroke-width="1" opacity="0.6941176470588235" d="M 243.5 261 L 244 262.5 L 236.5 273 L 236 271.5 L 243.5 261 Z " /><path fill="rgb(96,192,108)" stroke="rgb(96,192,108)" stroke-width="1" opacity="0.6941176470588235" d="M 106.5 263 Q 109.1 262.2 108 265.5 L 108.5 267 L 106.5 263 Z " /><path fill="rgb(96,192,108)" stroke="rgb(96,192,108)" stroke-width="1" opacity="0.6941176470588235" d="M 188.5 263 L 189 265.5 L 188 270 Q 185.3 271.1 186 268.5 L 188 265.5 Q 185.8 264.3 188.5 263 Z " /><path fill="rgb(96,192,108)" stroke="rgb(96,192,108)" stroke-width="1" opacity="0.6941176470588235" d="M 175 264 Q 178 263 177 266 Q 174 267 175 264 Z " /><path fill="rgb(96,192,108)" stroke="rgb(96,192,108)" stroke-width="1" opacity="0.6941176470588235" d="M 62.5 265 L 63 268.5 L 62 268.5 L 62.5 265 Z " /><path fill="rgb(96,192,108)" stroke="rgb(96,192,108)" stroke-width="1" opacity="0.6941176470588235" d="M 304 265 Q 307.3 263.7 306 268.5 L 304.5 271 L 304 265 Z " /><path fill="rgb(96,192,108)" stroke="rgb(96,192,108)" stroke-width="1" opacity="0.6941176470588235" d="M 108.5 268 Q 111.1 267.2 110 270.5 L 110.5 272 Q 107.9 272.8 109 269.5 L 108.5 268 Z " /><path fill="rgb(96,192,108)" stroke="rgb(96,192,108)" stroke-width="1" opacity="0.6941176470588235" d="M 174.5 269 Q 177.5 270.5 174.5 272 L 174.5 269 Z " /><path fill="rgb(96,192,108)" stroke="rgb(96,192,108)" stroke-width="1" opacity="0.6941176470588235" d="M 248.5 270 L 249 271.5 L 247 276 L 245 275.5 L 248.5 270 Z " /><path fill="rgb(96,192,108)" stroke="rgb(96,192,108)" stroke-width="1" opacity="0.6941176470588235" d="M 186.5 272 L 187 277.5 L 186 281.5 Q 188.5 283 187 288.5 L 185 287.5 L 185 273.5 L 186.5 272 Z " /><path fill="rgb(96,192,108)" stroke="rgb(96,192,108)" stroke-width="1" opacity="0.6941176470588235" d="M 303 272 Q 306 270.8 305 274.5 L 303 275.5 L 303 272 Z " /><path fill="rgb(96,192,108)" stroke="rgb(96,192,108)" stroke-width="1" opacity="0.6941176470588235" d="M 62.5 274 Q 65.1 273.2 64 276.5 L 63 276.5 L 62.5 274 Z " /><path fill="rgb(96,192,108)" stroke="rgb(96,192,108)" stroke-width="1" opacity="0.6941176470588235" d="M 234.5 274 L 236 274.5 L 235 277 Q 232.3 278.1 233 275.5 L 234.5 274 Z " /><path fill="rgb(96,192,108)" stroke="rgb(96,192,108)" stroke-width="1" opacity="0.6941176470588235" d="M 111.5 276 Q 114.1 275.2 113 278.5 L 113.5 280 L 111.5 276 Z " /><path fill="rgb(96,192,108)" stroke="rgb(96,192,108)" stroke-width="1" opacity="0.6941176470588235" d="M 231.5 278 L 231 279.5 L 229.5 282 L 230 280.5 L 231.5 278 Z " /><path fill="rgb(96,192,108)" stroke="rgb(96,192,108)" stroke-width="1" opacity="0.6941176470588235" d="M 302 278 Q 304.7 276.9 304 279.5 L 302 280.5 L 302 278 Z " /><path fill="rgb(96,192,108)" stroke="rgb(96,192,108)" stroke-width="1" opacity="0.6941176470588235" d="M 243 279 L 245 279.5 L 241 284.5 L 241 287 Q 238.3 285.9 239 288.5 L 236 290.5 L 243 279 Z " /><path fill="rgb(96,192,108)" stroke="rgb(96,192,108)" stroke-width="1" opacity="0.6941176470588235" d="M 124.5 280 L 125.5 282 L 124.5 280 Z " /><path fill="rgb(96,192,108)" stroke="rgb(96,192,108)" stroke-width="1" opacity="0.6941176470588235" d="M 301 282 L 303 282.5 L 301 283.5 L 301 282 Z " /><path fill="rgb(96,192,108)" stroke="rgb(96,192,108)" stroke-width="1" opacity="0.6941176470588235" d="M 125.5 283 L 127 284.5 L 132 301.5 L 130 300.5 L 125.5 283 Z " /><path fill="rgb(96,192,108)" stroke="rgb(96,192,108)" stroke-width="1" opacity="0.6941176470588235" d="M 227.5 283 L 227 284.5 L 222.5 291 L 222 289.5 L 227.5 283 Z " /><path fill="rgb(96,192,108)" stroke="rgb(96,192,108)" stroke-width="1" opacity="0.6941176470588235" d="M 174.5 287 L 176 290.5 L 174 291 L 174.5 287 Z " /><path fill="rgb(96,192,108)" stroke="rgb(96,192,108)" stroke-width="1" opacity="0.6941176470588235" d="M 299.5 288 L 300 290.5 L 298.5 293 L 298 291.5 L 299.5 288 Z " /><path fill="rgb(96,192,108)" stroke="rgb(96,192,108)" stroke-width="1" opacity="0.6941176470588235" d="M 186 291 Q 189.3 289.9 188 294 Q 184.7 295.1 186 291 Z " /><path fill="rgb(96,192,108)" stroke="rgb(96,192,108)" stroke-width="1" opacity="0.6941176470588235" d="M 118.5 293 L 121 297.5 L 119 298 L 118.5 293 Z " /><path fill="rgb(96,192,108)" stroke="rgb(96,192,108)" stroke-width="1" opacity="0.6941176470588235" d="M 234.5 293 L 233 295.5 L 229.5 300 L 228 299.5 L 231 297.5 L 234.5 293 Z " /><path fill="rgb(96,192,108)" stroke="rgb(96,192,108)" stroke-width="1" opacity="0.6941176470588235" d="M 297.5 294 L 298 295.5 L 296.5 298 L 296 296.5 L 297.5 294 Z " /><path fill="rgb(96,192,108)" stroke="rgb(96,192,108)" stroke-width="1" opacity="0.6941176470588235" d="M 68.5 295 L 70 298.5 L 69 298.5 L 68.5 295 Z " /><path fill="rgb(96,192,108)" stroke="rgb(96,192,108)" stroke-width="1" opacity="0.6941176470588235" d="M 187.5 296 Q 190.1 295.2 189 298.5 L 189.5 300 Q 186.9 300.8 188 297.5 L 187.5 296 Z " /><path fill="rgb(96,192,108)" stroke="rgb(96,192,108)" stroke-width="1" opacity="0.6941176470588235" d="M 176.5 297 L 178 299.5 L 176 300 L 176.5 297 Z " /><path fill="rgb(96,192,108)" stroke="rgb(96,192,108)" stroke-width="1" opacity="0.6941176470588235" d="M 214.5 297 L 211.5 301 L 208.5 303 L 211.5 299 L 214.5 297 Z " /><path fill="rgb(96,192,108)" stroke="rgb(96,192,108)" stroke-width="1" opacity="0.6941176470588235" d="M 120 300 Q 123 299 122 302 Q 119 303 120 300 Z " /><path fill="rgb(96,192,108)" stroke="rgb(96,192,108)" stroke-width="1" opacity="0.6941176470588235" d="M 71.5 301 Q 74.5 303 74 308.5 L 77 312.5 L 75 313 L 71 304.5 L 71.5 301 Z " /><path fill="rgb(96,192,108)" stroke="rgb(96,192,108)" stroke-width="1" opacity="0.6941176470588235" d="M 177 302 Q 180.3 300.7 179 305.5 L 178 305.5 L 177 302 Z " /><path fill="rgb(96,192,108)" stroke="rgb(96,192,108)" stroke-width="1" opacity="0.6941176470588235" d="M 121.5 303 L 123 305.5 L 121 306 L 121.5 303 Z " /><path fill="rgb(96,192,108)" stroke="rgb(96,192,108)" stroke-width="1" opacity="0.6941176470588235" d="M 131.5 303 Q 133.8 302.3 133 304.5 L 131.5 303 Z " /><path fill="rgb(96,192,108)" stroke="rgb(96,192,108)" stroke-width="1" opacity="0.6941176470588235" d="M 191.5 303 L 194 307.5 L 192 306.5 L 191.5 303 Z " /><path fill="rgb(96,192,108)" stroke="rgb(96,192,108)" stroke-width="1" opacity="0.6941176470588235" d="M 292 303 Q 294.7 301.9 294 304.5 L 290 311 L 284.5 315 L 289 309.5 Q 288.3 306.9 291 308 L 291 305.5 L 292 303 Z " /><path fill="rgb(96,192,108)" stroke="rgb(96,192,108)" stroke-width="1" opacity="0.6941176470588235" d="M 205.5 304 L 206 305.5 L 204 306.5 L 205.5 304 Z " /><path fill="rgb(96,192,108)" stroke="rgb(96,192,108)" stroke-width="1" opacity="0.6941176470588235" d="M 132.5 307 Q 134.8 306.3 134 308.5 L 132.5 307 Z " /><path fill="rgb(96,192,108)" stroke="rgb(96,192,108)" stroke-width="1" opacity="0.6941176470588235" d="M 200 308 L 202 308.5 L 200 309.5 L 200 308 Z " /><path fill="rgb(96,192,108)" stroke="rgb(96,192,108)" stroke-width="1" opacity="0.6941176470588235" d="M 122.5 309 Q 124.8 308.3 124 310.5 L 122.5 309 Z " /><path fill="rgb(96,192,108)" stroke="rgb(96,192,108)" stroke-width="1" opacity="0.6941176470588235" d="M 195.5 309 L 196.5 311 L 195.5 309 Z " /><path fill="rgb(96,192,108)" stroke="rgb(96,192,108)" stroke-width="1" opacity="0.6941176470588235" d="M 181.5 310 L 184 314.5 L 183 314.5 Q 183.7 311.9 181 313 L 181.5 310 Z " /><path fill="rgb(96,192,108)" stroke="rgb(96,192,108)" stroke-width="1" opacity="0.6941176470588235" d="M 216.5 311 L 218 311.5 L 212.5 315 L 212.5 314 L 216.5 311 Z " /><path fill="rgb(96,192,108)" stroke="rgb(96,192,108)" stroke-width="1" opacity="0.6941176470588235" d="M 123.5 314 L 125 316.5 L 123 315.5 L 123.5 314 Z " /><path fill="rgb(96,192,108)" stroke="rgb(96,192,108)" stroke-width="1" opacity="0.6941176470588235" d="M 184.5 316 Q 186.8 315.3 186 317.5 L 184.5 316 Z " /><path fill="rgb(96,192,108)" stroke="rgb(96,192,108)" stroke-width="1" opacity="0.6941176470588235" d="M 210.5 316 L 211 317.5 L 208.5 319 L 210.5 316 Z " /><path fill="rgb(96,192,108)" stroke="rgb(96,192,108)" stroke-width="1" opacity="0.6941176470588235" d="M 79.5 317 L 87 328.5 L 85 327.5 L 79 318.5 L 79.5 317 Z " /><path fill="rgb(96,192,108)" stroke="rgb(96,192,108)" stroke-width="1" opacity="0.6941176470588235" d="M 279.5 317 L 281 317.5 L 278 319.5 L 279.5 317 Z " /><path fill="rgb(96,192,108)" stroke="rgb(96,192,108)" stroke-width="1" opacity="0.6941176470588235" d="M 124.5 319 L 126 322.5 L 124 321.5 L 124.5 319 Z " /><path fill="rgb(96,192,108)" stroke="rgb(96,192,108)" stroke-width="1" opacity="0.6941176470588235" d="M 208.5 320 Q 210.8 319.3 210 321.5 L 208.5 320 Z " /><path fill="rgb(96,192,108)" stroke="rgb(96,192,108)" stroke-width="1" opacity="0.6941176470588235" d="M 188.5 321 L 190.5 324 L 188.5 321 Z " /><path fill="rgb(96,192,108)" stroke="rgb(96,192,108)" stroke-width="1" opacity="0.6941176470588235" d="M 265.5 324 L 266 326 L 264 325.5 L 265.5 324 Z " /><path fill="rgb(96,192,108)" stroke="rgb(96,192,108)" stroke-width="1" opacity="0.6941176470588235" d="M 220.5 325 L 221.5 327 L 220.5 325 Z " /><path fill="rgb(96,192,108)" stroke="rgb(96,192,108)" stroke-width="1" opacity="0.6941176470588235" d="M 262.5 325 L 261.5 327 L 262.5 325 Z " /><path fill="rgb(96,192,108)" stroke="rgb(96,192,108)" stroke-width="1" opacity="0.6941176470588235" d="M 125.5 326 Q 127.8 325.3 127 327.5 L 125.5 326 Z " /><path fill="rgb(96,192,108)" stroke="rgb(96,192,108)" stroke-width="1" opacity="0.6941176470588235" d="M 137.5 326 L 139 329.5 L 138 329.5 L 137.5 326 Z " /><path fill="rgb(96,192,108)" stroke="rgb(96,192,108)" stroke-width="1" opacity="0.6941176470588235" d="M 195.5 327 L 197.5 330 L 195 329 L 195.5 327 Z " /><path fill="rgb(96,192,108)" stroke="rgb(96,192,108)" stroke-width="1" opacity="0.6941176470588235" d="M 231.5 328 L 235 328.5 L 231.5 329 L 231.5 328 Z " /><path fill="rgb(96,192,108)" stroke="rgb(96,192,108)" stroke-width="1" opacity="0.6941176470588235" d="M 249.5 328 L 252 328.5 L 249.5 329 L 249.5 328 Z " /><path fill="rgb(96,192,108)" stroke="rgb(96,192,108)" stroke-width="1" opacity="0.6941176470588235" d="M 88.5 331 L 91 332.5 L 90.5 334 L 88.5 331 Z " /><path fill="rgb(96,192,108)" stroke="rgb(96,192,108)" stroke-width="1" opacity="0.6941176470588235" d="M 138.5 331 L 140 333.5 L 138 332.5 L 138.5 331 Z " /><path fill="rgb(96,192,108)" stroke="rgb(96,192,108)" stroke-width="1" opacity="0.6941176470588235" d="M 277.5 331 L 279 333.5 L 274 337.5 L 278 333.5 L 277 332.5 L 277.5 331 Z " /><path fill="rgb(96,192,108)" stroke="rgb(96,192,108)" stroke-width="1" opacity="0.6941176470588235" d="M 139.5 335 L 140.5 337 Q 137.7 337.7 139.5 335 Z " /><path fill="rgb(96,192,108)" stroke="rgb(96,192,108)" stroke-width="1" opacity="0.6941176470588235" d="M 261.5 337 L 260.5 339 L 261.5 337 Z " /><path fill="rgb(96,192,108)" stroke="rgb(96,192,108)" stroke-width="1" opacity="0.6941176470588235" d="M 218.5 338 L 221 339.5 L 219.5 340 L 218.5 338 Z " /><path fill="rgb(96,192,108)" stroke="rgb(96,192,108)" stroke-width="1" opacity="0.6941176470588235" d="M 256.5 338 L 255.5 340 L 256.5 338 Z " /><path fill="rgb(96,192,108)" stroke="rgb(96,192,108)" stroke-width="1" opacity="0.6941176470588235" d="M 96.5 339 L 99.5 343 L 96.5 339 Z " /><path fill="rgb(96,192,108)" stroke="rgb(96,192,108)" stroke-width="1" opacity="0.6941176470588235" d="M 140.5 339 Q 143.1 338.2 142 341.5 L 143 345.5 L 142 345.5 L 140.5 339 Z " /><path fill="rgb(96,192,108)" stroke="rgb(96,192,108)" stroke-width="1" opacity="0.6941176470588235" d="M 224.5 339 L 228 340.5 L 225.5 341 L 224.5 339 Z " /><path fill="rgb(96,192,108)" stroke="rgb(96,192,108)" stroke-width="1" opacity="0.6941176470588235" d="M 248.5 339 L 251 339.5 L 247.5 341 L 248.5 339 Z " /><path fill="rgb(96,192,108)" stroke="rgb(96,192,108)" stroke-width="1" opacity="0.6941176470588235" d="M 264.5 347 L 265 349 L 260.5 351 L 262.5 348 L 264.5 347 Z " /><path fill="rgb(96,192,108)" stroke="rgb(96,192,108)" stroke-width="1" opacity="0.6941176470588235" d="M 106.5 348 L 109.5 352 L 106 349.5 L 106.5 348 Z " /><path fill="rgb(96,192,108)" stroke="rgb(96,192,108)" stroke-width="1" opacity="0.6941176470588235" d="M 143.5 348 Q 145.8 347.3 145 349.5 L 147 353.5 L 145 354 L 143.5 348 Z " /><path fill="rgb(96,192,108)" stroke="rgb(96,192,108)" stroke-width="1" opacity="0.6941176470588235" d="M 133.5 351 L 134.5 353 Q 131.7 353.7 133.5 351 Z " /><path fill="rgb(96,192,108)" stroke="rgb(96,192,108)" stroke-width="1" opacity="0.6941176470588235" d="M 112.5 353 L 113.5 355 L 112.5 353 Z " /><path fill="rgb(96,192,108)" stroke="rgb(96,192,108)" stroke-width="1" opacity="0.6941176470588235" d="M 134 354 Q 137 352.8 136 356.5 L 136.5 358 Q 134.3 358.8 135 356.5 L 134 354 Z " /><path fill="rgb(96,192,108)" stroke="rgb(96,192,108)" stroke-width="1" opacity="0.6941176470588235" d="M 255.5 354 L 257 354.5 L 254.5 356 L 255.5 354 Z " /><path fill="rgb(96,192,108)" stroke="rgb(96,192,108)" stroke-width="1" opacity="0.6941176470588235" d="M 251.5 357 L 250.5 359 L 251.5 357 Z " /><path fill="rgb(96,192,108)" stroke="rgb(96,192,108)" stroke-width="1" opacity="0.6941176470588235" d="M 136.5 359 L 140 365.5 L 138 364.5 L 136.5 359 Z " /><path fill="rgb(96,192,108)" stroke="rgb(96,192,108)" stroke-width="1" opacity="0.6941176470588235" d="M 247 360 L 249 360.5 L 247 361.5 L 247 360 Z " /><path fill="rgb(96,192,108)" stroke="rgb(96,192,108)" stroke-width="1" opacity="0.6941176470588235" d="M 151.5 361 L 153 363.5 L 151 362.5 L 151.5 361 Z " /><path fill="rgb(96,192,108)" stroke="rgb(96,192,108)" stroke-width="1" opacity="0.6941176470588235" d="M 125.5 362 Q 127.8 361.3 127 363.5 L 125.5 362 Z " /><path fill="rgb(96,192,108)" stroke="rgb(96,192,108)" stroke-width="1" opacity="0.6941176470588235" d="M 238 365 L 240 365.5 L 238 366.5 L 238 365 Z " /><path fill="rgb(96,192,108)" stroke="rgb(96,192,108)" stroke-width="1" opacity="0.6941176470588235" d="M 136.5 367 L 137.5 369 L 136.5 367 Z " /><path fill="rgb(96,192,108)" stroke="rgb(96,192,108)" stroke-width="1" opacity="0.6941176470588235" d="M 160.5 370 L 161.5 372 L 160.5 370 Z " /><path fill="rgb(96,192,108)" stroke="rgb(96,192,108)" stroke-width="1" opacity="0.6941176470588235" d="M 166.5 374 L 170 375 L 169.5 377 L 166.5 374 Z " /><path fill="rgb(96,192,108)" stroke="rgb(96,192,108)" stroke-width="1" opacity="0.6941176470588235" d="M 216 375 L 218 375.5 L 216 376.5 L 216 375 Z " /><path fill="rgb(96,192,108)" stroke="rgb(96,192,108)" stroke-width="1" opacity="0.6941176470588235" d="M 213.5 376 L 214 378 L 212 377.5 L 213.5 376 Z " /><path fill="rgb(96,192,108)" stroke="rgb(96,192,108)" stroke-width="1" opacity="0.6941176470588235" d="M 179.5 378 Q 181.8 377.3 181 379.5 L 179.5 378 Z " /><path fill="rgb(96,192,108)" stroke="rgb(96,192,108)" stroke-width="1" opacity="0.6941176470588235" d="M 202.5 378 L 205 378.5 L 201.5 380 L 202.5 378 Z " /><path fill="rgb(96,192,108)" stroke="rgb(96,192,108)" stroke-width="1" opacity="0.6941176470588235" d="M 187.5 379 L 195 379.5 L 187.5 380 L 187.5 379 Z " /></svg>