<?xml version="1.0" encoding="UTF-8"?>
<!DOCTYPE svg PUBLIC "-//W3C//DTD SVG 1.1//EN" "http://www.w3.org/Graphics/SVG/1.1/DTD/svg11.dtd">
<!-- Creator: CorelDRAW (Versão OEM) -->
<svg xmlns="http://www.w3.org/2000/svg" xml:space="preserve" width="297mm" height="210mm" version="1.1" style="shape-rendering:geometricPrecision; text-rendering:geometricPrecision; image-rendering:optimizeQuality; fill-rule:evenodd; clip-rule:evenodd"
viewBox="0 0 29700 21000"
 xmlns:xlink="http://www.w3.org/1999/xlink"
 xmlns:xodm="http://www.corel.com/coreldraw/odm/2003">
 <defs>
  <style type="text/css">
   <![CDATA[
    .fil0 {fill:#0A583A}
    .fil1 {fill:#66AD49}
   ]]>
  </style>
 </defs>
 <g id="Camada_x0020_1">
  <metadata id="CorelCorpID_0Corel-Layer"/>
  <g id="_1897619552608">
   <path class="fil0" d="M9025.11 9404.68c73.46,670.72 703.81,1201.21 418.59,1921.7 -191.17,482.91 -769.99,955.9 -1058.51,1426.67 -794.2,1295.87 983.25,2672.02 1832.34,541.09 662.69,-1663.16 1676.31,-2240.37 1329.19,-3502.47 -444.77,-1617.22 -2694.15,-1962.61 -2521.61,-386.99z"/>
   <path class="fil1" d="M6914 13481.62c-35.43,-276.01 -86.92,-458.64 -81.3,-754.2 4.41,-232.65 30.72,-579.83 -3.43,-796.02 -40,-253.29 -403.63,-1086.59 -321.56,-1282.69 188.64,38.21 294.17,685.41 405.14,839.87 79.49,-236.16 342.95,-1685.12 623.67,-1689.41l-373.94 1830.42c71.07,-22.17 694.56,-532.92 805.53,-620.18 156.48,198.98 -361.88,425.79 -743.51,944.28 -201.51,273.75 -105.57,1123.88 23.26,1440.98 54.5,-121.2 1182.29,-872.88 1329.22,-1900.68 47.38,-331.49 53.25,-2847.2 4.86,-3169.01 -1133.74,164.4 -2149.53,944.22 -2592.79,1989.76 -753.17,1776.56 595.11,3230.73 924.85,3166.88z"/>
   <path class="fil0" d="M17317.03 9512.53c539.61,-143.59 660.81,725.7 231.58,876.23 -566.29,198.62 -687.14,-755.02 -231.58,-876.23zm473.37 -206.16c-612.35,-469.19 -1243.6,-5.77 -1222.26,685.66 9.69,313.93 135.2,590.21 421.15,731.86 475.35,235.45 584.09,-57.54 806.41,-139.2 51.99,238.48 -40.67,458.83 -285.66,510.87 -305.26,64.85 -390.32,-51.18 -600.53,-197.29l-278.46 233.41c444.94,530.77 1292.23,377.71 1509.14,4.75 127.71,-219.58 188.89,-1757.81 96.57,-1982.15 -49.67,-12.4 -267.92,-23.44 -319.13,-17.41 -209.4,24.68 -66.98,47.19 -127.23,169.5z"/>
   <path class="fil0" d="M20618.91 10128.01c-123.19,-755.59 655.88,-820.02 757.09,-289.18 136.44,715.68 -670.8,818.4 -757.09,289.18zm753.74 -807.79c-620.41,-467.52 -1222.58,-71.23 -1236.65,649.86 -14.1,723.35 790.53,1190.83 1242.34,660.33l28.57 150.97 15.81 -160.1c-3.93,88.88 -10.36,87.38 20.93,157.26l351.1 -5.54 -11.9 -2185 -381.14 0.84c-3.22,98.07 37.41,658.84 -29.06,731.38z"/>
   <path class="fil0" d="M13553.06 8971.08c981.29,-134.35 1063.75,812.56 -12.74,720.44l12.74 -720.44zm-5.33 1094.43c275.13,-82.9 576.33,85.81 911.2,-168.05 241.08,-182.77 337.78,-493.78 258.34,-790.39 -161.38,-602.66 -1162.08,-623.35 -1634.28,-515.68l15.41 2214.78 440.13 -12.19 9.2 -728.47z"/>
   <path class="fil0" d="M14028.9 11786.7c-178.41,460.53 -1168.31,1309.24 -992.87,1821.71l1589.29 -3.76 -20.79 -393.76 -1016.66 -5.86c151.72,-268.19 395.37,-559.67 568.63,-830.65 230.19,-360.07 465.7,-502.16 419.62,-971.32l-1492.93 15.32 8.59 361.71 937.12 6.61z"/>
   <path class="fil0" d="M18045.22 12908.27c-116.18,-707.49 665.63,-801.31 759.83,-246.51 117.37,691.22 -668.63,801.94 -759.83,246.51zm-471.93 -22.61c99.85,1061.84 1788.1,1024.21 1706.92,-180.59 -74.64,-1107.37 -1821.91,-1042.19 -1706.92,180.59z"/>
   <path class="fil0" d="M6914 13481.62c93.91,148.22 406.34,1366.26 788.49,806.61l23.45 -13.47 -478.08 -880.09c-128.83,-317.1 -224.77,-1167.23 -23.26,-1440.98 381.63,-518.49 899.99,-745.3 743.51,-944.28 -110.97,87.26 -734.46,598.01 -805.53,620.18l373.94 -1830.42c-280.72,4.29 -544.18,1453.25 -623.67,1689.41 -110.97,-154.46 -216.5,-801.66 -405.14,-839.87 -82.07,196.1 281.56,1029.4 321.56,1282.69 34.15,216.19 7.84,563.37 3.43,796.02 -5.62,295.56 45.87,478.19 81.3,754.2z"/>
   <path class="fil0" d="M19470.5 10116.06c45.57,476.56 -408.51,451.11 -510.56,352.34 -97.74,-94.59 -58.04,-263.95 65.55,-320.63 105.38,-48.34 333.62,-52.75 445.01,-31.71zm-934.2 -510.67c367.65,253.19 385.82,6.69 525.45,-78.77 226.56,-138.7 469.72,6.33 410.46,298.74 -322.59,72.69 -1083.45,-36.22 -1002.78,612.71 57.13,459.36 711.73,540.86 1010.35,194.47 49.29,151.2 -42.85,172.28 156.61,179.61 89.26,3.28 207.06,2.43 292.46,-12.95 30.19,-347.02 54.3,-1363.36 -232.88,-1563.28 -354.75,-246.96 -1131.75,-121.86 -1159.67,369.47z"/>
   <path class="fil0" d="M23024.64 10109.16c24.14,525.15 -435.71,430.05 -517.36,360.96 -67.01,-56.7 -209.74,-411.93 517.36,-360.96zm-933.76 -508.38c327.55,283.91 418.82,-16.2 518.18,-75.5 228.33,-136.28 470.28,10.75 411.89,301 -311.22,65.13 -1121.33,-24.19 -996.31,626.88 95.21,495.86 662.94,472.17 1007.08,184.24 67.27,143.68 -79.67,157.95 130.02,174.72 92.3,7.39 230.3,7.49 311.16,-19.83 25.76,-182.01 -10.17,-648.69 -9.61,-867.76 0.69,-263.83 14.78,-524.88 -219.66,-688.33 -356.82,-248.73 -1132.84,-112.52 -1152.75,364.58z"/>
   <path class="fil0" d="M15276.69 9830.02c47.48,-469.7 699.45,-495.04 696.82,1.93l-696.82 -1.93zm-4.01 278.05c154.25,-32.3 721.37,-12.84 911.54,-7.93 218.01,5.63 228.61,0.87 214.43,-243.22 -46.48,-800.09 -907.17,-962.09 -1327.54,-522.95 -327.17,341.8 -347.32,994.82 30.12,1310.4 382.43,319.77 1225.22,203.72 1232.55,-177.86l-286.88 -136.4c-180.62,87.59 -231.53,214.47 -506.48,122.29 -139.1,-46.65 -260.14,-197.3 -267.74,-344.33z"/>
   <path class="fil0" d="M15165.2 12642.37c32.66,-448.17 684.04,-529.18 697.78,3.12l-697.78 -3.12zm-4.92 269.6c166.32,-32.01 711.4,-11.13 910.76,-5.86 221.39,5.86 234.93,2.47 215.93,-246.56 -62.73,-822.71 -945.07,-920.37 -1324.98,-518.74 -325.37,344 -350.86,986.58 27.02,1305.68 340.22,287.3 1122.42,271.96 1234.81,-157.74l-273.58 -148.37c-180.2,77.99 -235.56,195.12 -490.01,126.9 -160.67,-43.07 -289.13,-189.03 -299.95,-355.31z"/>
   <path class="fil0" d="M10176.54 7573.77c142.72,-801.97 -862.28,-894.95 -990.83,-124.4 -134.39,805.5 848.65,923.41 990.83,124.4z"/>
   <path class="fil0" d="M16918.23 12188.18c-38.71,58.68 -13.86,-126.92 -28.92,-193.77l-352.96 0.27 -8.3 1577.15 376.8 7.22c2.62,-186.35 3.04,-373.51 1.64,-557.76 -1.05,-138.86 -9.64,-244.68 22.19,-382.1 33.93,-146.62 8.73,-73.74 34.43,-55.8 410.9,-356.12 113.78,-116.57 557.08,-237.55l-18.23 -399.74c-387.05,-90.32 -414.93,143.98 -583.73,242.08z"/>
   <path class="fil0" d="M11008.35 7777.2c116.35,-622.67 -613.44,-587.88 -720.76,-38.84 -120.27,615.17 613.55,612.63 720.76,38.84z"/>
   <path class="fil0" d="M11596.16 8297.08c172.54,-571.06 -446,-621.99 -595.59,-162.82 -175.31,538.13 452.02,637.97 595.59,162.82z"/>
   <path class="fil0" d="M12027.02 8839.58c135.24,-434.3 -385.98,-540.78 -529.79,-94.14 -144.34,448.2 386.39,554.73 529.79,94.14z"/>
   <path class="fil0" d="M12142.19 9562.91c116.57,-303.13 -295.58,-453.75 -410.58,-106.55 -112.58,339.84 280.66,444.46 410.58,106.55z"/>
  </g>
 </g>
</svg>
